<svg xmlns="http://www.w3.org/2000/svg" viewBox="0 0 139 156.4"><defs><style>.cls-1,.cls-4{fill:#fff;}.cls-1{stroke:#fbb82f;stroke-width:4px;}.cls-1,.cls-2,.cls-3,.cls-5{stroke-miterlimit:10;}.cls-2,.cls-3{fill:none;}.cls-2,.cls-3,.cls-5{stroke:#14acbb;}.cls-2{stroke-width:2.5px;}.cls-3{stroke-width:2.72px;}.cls-5{fill:#fbb91b;stroke-width:1.67px;}</style></defs><g id="Layer_2" data-name="Layer 2"><g id="Layer_1-2" data-name="Layer 1"><g id="cms"><g id="Group_1192" data-name="Group 1192"><g id="Group_1177" data-name="Group 1177"><path id="Path_3763" data-name="Path 3763" class="cls-1" d="M137,110.68v-65A11.26,11.26,0,0,0,131.38,36L75.12,3.51a11.23,11.23,0,0,0-11.24,0L7.63,36A11.23,11.23,0,0,0,2,45.72v65a11.23,11.23,0,0,0,5.63,9.74L63.88,152.9a11.28,11.28,0,0,0,11.24,0l56.25-32.48A11.25,11.25,0,0,0,137,110.68Z"/></g><g id="Group_1188" data-name="Group 1188"><path id="Path_3901" data-name="Path 3901" class="cls-2" d="M106.23,109.74h-77A4.23,4.23,0,0,1,25,105.5h0V50.23A4.23,4.23,0,0,1,29.23,46h77a4.23,4.23,0,0,1,4.23,4.23h0V105.5a4.23,4.23,0,0,1-4.23,4.24Z"/><line id="Line_197" data-name="Line 197" class="cls-3" x1="25.36" y1="55.78" x2="109.74" y2="55.78"/></g><circle class="cls-4" cx="106" cy="82.35" r="12.51"/><path id="Path_3464" data-name="Path 3464" class="cls-5" d="M119.38,87l3.19.07a17.07,17.07,0,0,0,.5-3.69v-.18c0-.06,0-.12,0-.18a17.08,17.08,0,0,0-.34-3.71l-3-.07a13.68,13.68,0,0,0-1-3L121,74.1a17.64,17.64,0,0,0-2.26-3,.71.71,0,0,1-.13-.12,1.54,1.54,0,0,0-.12-.13,16.8,16.8,0,0,0-2.86-2.39l-2,2a13.65,13.65,0,0,0-3.46-1.56l.07-3.13a16.88,16.88,0,0,0-3.68-.49,1.08,1.08,0,0,0-.18,0h-.19a17,17,0,0,0-3.7.33l-.07,3.22a13.84,13.84,0,0,0-3.06,1.27l-2.13-2.23a17.17,17.17,0,0,0-3,2.26l-.12.13-.13.12a16.8,16.8,0,0,0-2.39,2.86l2.25,2.36a14.48,14.48,0,0,0-1.23,3l-3.14-.06a16.38,16.38,0,0,0-.49,3.69,1.08,1.08,0,0,1,0,.18,1.1,1.1,0,0,1,0,.18,17.79,17.79,0,0,0,.34,3.71l3.38.08a14.68,14.68,0,0,0,1.25,2.91l-2.37,2.28a16.68,16.68,0,0,0,2.26,3,1.59,1.59,0,0,0,.13.13l.12.13a16.73,16.73,0,0,0,2.85,2.39l2.56-2.45a13.2,13.2,0,0,0,2.32,1L101.69,99a16.88,16.88,0,0,0,3.68.49,1.08,1.08,0,0,0,.18,0h.18a17.69,17.69,0,0,0,3.7-.33L109.5,96a14.11,14.11,0,0,0,2.83-1l2.26,2.36a16.68,16.68,0,0,0,3-2.26,1.42,1.42,0,0,0,.12-.13l.14-.12A17.63,17.63,0,0,0,120.19,92l-2.13-2.24A14.21,14.21,0,0,0,119.38,87Zm-13.59,5.36a10,10,0,1,1,8-16.17A9.83,9.83,0,0,1,116,82.57a10,10,0,0,1-10.17,9.75Zm.12-5.51a4.45,4.45,0,1,1,4.54-4.36h0A4.45,4.45,0,0,1,105.91,86.81Z"/><line class="cls-2" x1="37.8" y1="71.25" x2="69.26" y2="71.25"/><line class="cls-2" x1="37.8" y1="82.35" x2="69.26" y2="82.35"/><line class="cls-2" x1="37.8" y1="93.45" x2="54.75" y2="93.45"/></g></g></g></g></svg>