<svg xmlns="http://www.w3.org/2000/svg" width="139" height="156.677" viewBox="0 0 139 156.677"><defs><style>.a{fill:#fff;stroke:#1badbc;stroke-width:4px;}.a,.b,.c{stroke-miterlimit:10;}.b{fill:none;stroke:#0babba;}.b,.c{stroke-width:2.5px;}.c,.d{fill:#fdb913;}.c{stroke:#0eacbb;}</style></defs><g transform="translate(-94.5 -1725.363)"><g transform="translate(-1092.58 691.942)"><path class="a" d="M1231.58,1144.736v-64.952a11.252,11.252,0,0,0-5.625-9.743l-56.251-32.477a11.256,11.256,0,0,0-11.249,0l-56.25,32.476a11.249,11.249,0,0,0-5.625,9.742v64.953a11.245,11.245,0,0,0,5.625,9.742l56.25,32.477a11.251,11.251,0,0,0,11.249,0l56.25-32.477A11.248,11.248,0,0,0,1231.58,1144.736Z" transform="translate(92.5 -0.5)"/></g><g transform="translate(-49 22.951)"><g transform="translate(169.273 1741.643)"><path class="b" d="M343.87,788.427H313.392L298.153,814.38l15.239,25.953H343.87l15.239-25.953Z" transform="translate(-285.307 -774.51)"/><g transform="translate(-4.475 -2.427)"><g transform="translate(70.017 36.636)"><line class="b" y1="0.117" x2="14.775" transform="translate(0 5.404)"/><circle class="c" cx="5.404" cy="5.404" r="5.404" transform="translate(14.774 0)"/></g><g transform="translate(59.683 0)"><line class="b" y1="13.54" x2="7.619" transform="translate(0 8.487)"/><circle class="c" cx="5.404" cy="5.404" r="5.404" transform="translate(3.81)"/></g><g transform="translate(20.262 0)"><line class="b" x1="7.395" y1="13.393" transform="translate(7.996 9.541)"/><circle class="c" cx="5.404" cy="5.404" r="5.404" transform="translate(0 0)"/></g><g transform="translate(0 36.636)"><line class="b" x1="14.775" y1="0.117" transform="translate(10.807 5.404)"/><circle class="c" cx="5.404" cy="5.404" r="5.404" transform="translate(0 0)"/></g><g transform="translate(59.684 62.151)"><line class="b" x2="7.619" y2="13.54" transform="translate(0 0)"/><circle class="c" cx="5.404" cy="5.404" r="5.404" transform="translate(3.81 11.219)"/></g><g transform="translate(20.262 61.244)"><line class="b" x1="7.395" y2="13.393" transform="translate(7.996 0)"/><circle class="c" cx="5.404" cy="5.404" r="5.404" transform="translate(0 12.126)"/></g></g><path class="d" d="M341.386,818.711l2.936.063a15.8,15.8,0,0,0,.455-3.387c0-.058,0-.11,0-.165s.007-.11.007-.166a15.469,15.469,0,0,0-.306-3.409l-2.722-.057a12.955,12.955,0,0,0-.961-2.74l2.034-1.946a16.1,16.1,0,0,0-2.079-2.722c-.038-.035-.082-.072-.122-.114s-.065-.083-.105-.123a16.008,16.008,0,0,0-2.627-2.191l-1.87,1.791a12.775,12.775,0,0,0-3.182-1.436l.063-2.868a15.631,15.631,0,0,0-3.388-.453c-.061,0-.111,0-.168,0s-.107-.01-.168-.013a15.552,15.552,0,0,0-3.4.309l-.06,2.952a12.715,12.715,0,0,0-2.818,1.169l-1.962-2.044a15.884,15.884,0,0,0-2.717,2.076c-.037.037-.074.081-.115.118s-.081.07-.124.11a15.63,15.63,0,0,0-2.19,2.625l2.07,2.163a13.131,13.131,0,0,0-1.134,2.79l-2.89-.062a15.522,15.522,0,0,0-.453,3.389c0,.059.008.111.006.166s-.015.109-.019.164a15.923,15.923,0,0,0,.311,3.408l3.108.069a13.2,13.2,0,0,0,1.15,2.674l-2.182,2.094a15.41,15.41,0,0,0,2.078,2.72c.038.039.077.073.122.114s.068.082.105.123a15.359,15.359,0,0,0,2.628,2.192l2.35-2.247a12.605,12.605,0,0,0,2.139.925l-.069,2.952a15.825,15.825,0,0,0,3.39.454c.052,0,.109,0,.165,0s.109.011.165.012a15.8,15.8,0,0,0,3.406-.31l.065-2.865a12.618,12.618,0,0,0,2.6-.953l2.078,2.172a15.9,15.9,0,0,0,2.725-2.078c.041-.04.071-.083.111-.12s.084-.069.125-.111a15.187,15.187,0,0,0,2.191-2.625l-1.962-2.048A13.1,13.1,0,0,0,341.386,818.711Zm-12.473,3.6a7.826,7.826,0,1,1,8-7.651A7.828,7.828,0,0,1,328.913,822.306Zm.1-4.323a3.5,3.5,0,1,1,3.575-3.421A3.5,3.5,0,0,1,329.01,817.983Z" transform="translate(-285.289 -774.788)"/></g></g></g></svg>