<svg xmlns="http://www.w3.org/2000/svg" width="128.442" height="145" viewBox="0 0 128.442 145"><defs><style>.a{fill:#fdb92b;}.b{fill:none;stroke:#fff;stroke-miterlimit:10;stroke-width:2px;}.c{fill:#fff;}</style></defs><g transform="translate(-211 -3443)"><g transform="translate(0 -0.185)"><g transform="translate(-232.184 2067.969)"><g transform="translate(443.184 1375.216)"><g transform="translate(0 0)"><path class="a" d="M397.006,568.4V506.6a10.7,10.7,0,0,0-5.352-9.269l-53.518-30.9a10.707,10.707,0,0,0-10.7,0l-53.518,30.9a10.7,10.7,0,0,0-5.352,9.269v61.8a10.7,10.7,0,0,0,5.352,9.27l53.518,30.9a10.707,10.707,0,0,0,10.7,0l53.518-30.9A10.7,10.7,0,0,0,397.006,568.4Z" transform="translate(-268.564 -465)"/></g></g></g></g><g transform="translate(239 3482)"><path class="b" d="M990.221,223.113h44.528V167.592H979.228v40.883" transform="translate(-962.987 -167.592)"/><rect class="c" width="27.126" height="27.126" transform="translate(0 41.099)"/><g transform="translate(27.286 8.593)"><line class="b" y1="25.605" x2="28.638" transform="translate(-3.786 9.302)"/><g transform="translate(18.922)"><path class="c" d="M1011.788,189.367l4.745-15.643-15.92,3.71Z" transform="translate(-1000.613 -173.724)"/></g></g></g></g></svg>