<?xml version="1.0" encoding="utf-8"?>
<!-- Generator: Adobe Illustrator 25.2.0, SVG Export Plug-In . SVG Version: 6.00 Build 0)  -->
<svg version="1.1" id="Layer_1" xmlns="http://www.w3.org/2000/svg" xmlns:xlink="http://www.w3.org/1999/xlink" x="0px" y="0px"
	 viewBox="0 0 1191.3 233.1" style="enable-background:new 0 0 1191.3 233.1;" xml:space="preserve">
<style type="text/css">
	.st0{enable-background:new    ;}
	.st1{fill:#333333;}
	.st2{fill:#FCB813;}
	.st3{fill:#1F2957;}
	.st4{fill:#03ABBA;}
	.st5{fill:#FBB315;}
	.st6{fill:#FFFFFF;}
	.st7{fill:#FCB82B;}
	.st8{fill:#707070;}
</style>
<g id="Group_1225" transform="translate(-89.624 -4352.93)">
	<g class="st0">
		<path class="st1" d="M106.8,4525.2v5.8h-1.2v-14.2h4.8c1.5,0,2.6,0.4,3.5,1.1s1.3,1.8,1.3,3.1c0,1.3-0.4,2.4-1.2,3.1
			s-2,1.1-3.6,1.1H106.8z M106.8,4524.2h3.6c1.2,0,2.1-0.3,2.7-0.8c0.6-0.6,0.9-1.3,0.9-2.3c0-1-0.3-1.8-0.9-2.4
			c-0.6-0.6-1.5-0.9-2.6-0.9h-3.7V4524.2z"/>
		<path class="st1" d="M118.9,4531h-1.2v-15h1.2V4531z"/>
		<path class="st1" d="M128.8,4531c-0.1-0.3-0.2-0.8-0.2-1.5c-0.4,0.5-0.9,0.9-1.6,1.2s-1.3,0.4-2,0.4c-1,0-1.8-0.3-2.5-0.8
			s-0.9-1.3-0.9-2.1c0-1,0.4-1.8,1.3-2.4s2-0.9,3.6-0.9h2.1v-1.2c0-0.8-0.2-1.3-0.7-1.8c-0.5-0.4-1.1-0.6-2-0.6
			c-0.8,0-1.5,0.2-2,0.6s-0.8,0.9-0.8,1.5l-1.2,0c0-0.8,0.4-1.6,1.2-2.2s1.7-0.9,2.9-0.9c1.2,0,2.1,0.3,2.8,0.9c0.7,0.6,1,1.4,1,2.5
			v5c0,1,0.1,1.8,0.3,2.3v0.1H128.8z M125.1,4530.2c0.8,0,1.5-0.2,2.1-0.6s1.1-0.9,1.3-1.5v-2.3h-2.1c-1.2,0-2.1,0.2-2.7,0.6
			s-1,1-1,1.7c0,0.6,0.2,1.1,0.7,1.5S124.4,4530.2,125.1,4530.2z"/>
		<path class="st1" d="M133.9,4520.4l0,1.8c0.4-0.7,0.9-1.1,1.5-1.5s1.2-0.5,2-0.5c1.1,0,2,0.3,2.5,1s0.8,1.6,0.8,2.9v6.9h-1.2v-6.9
			c0-0.9-0.2-1.6-0.6-2.1s-1-0.7-1.9-0.7c-0.7,0-1.4,0.2-1.9,0.7s-1,1.1-1.2,1.8v7.2h-1.2v-10.6H133.9z"/>
		<path class="st1" d="M144.9,4520.4l0,1.8c0.4-0.7,0.9-1.1,1.5-1.5s1.2-0.5,2-0.5c1.1,0,2,0.3,2.5,1s0.8,1.6,0.8,2.9v6.9h-1.2v-6.9
			c0-0.9-0.2-1.6-0.6-2.1s-1-0.7-1.9-0.7c-0.7,0-1.4,0.2-1.9,0.7s-1,1.1-1.2,1.8v7.2h-1.2v-10.6H144.9z"/>
		<path class="st1" d="M154.7,4517.4c0-0.2,0.1-0.4,0.2-0.6c0.1-0.2,0.3-0.2,0.6-0.2s0.4,0.1,0.6,0.2c0.1,0.2,0.2,0.3,0.2,0.6
			s-0.1,0.4-0.2,0.6c-0.1,0.1-0.3,0.2-0.6,0.2s-0.4-0.1-0.6-0.2C154.8,4517.8,154.7,4517.6,154.7,4517.4z M156.1,4531h-1.2v-10.6
			h1.2V4531z"/>
		<path class="st1" d="M160.4,4520.4l0,1.8c0.4-0.7,0.9-1.1,1.5-1.5s1.2-0.5,2-0.5c1.1,0,2,0.3,2.5,1s0.8,1.6,0.8,2.9v6.9h-1.2v-6.9
			c0-0.9-0.2-1.6-0.6-2.1s-1-0.7-1.9-0.7c-0.7,0-1.4,0.2-1.9,0.7s-1,1.1-1.2,1.8v7.2h-1.2v-10.6H160.4z"/>
		<path class="st1" d="M169.8,4525.6c0-1.7,0.4-3,1.1-3.9s1.7-1.5,3-1.5c1.4,0,2.5,0.6,3.3,1.7l0.1-1.5h1.1v10.4
			c0,1.4-0.4,2.4-1.1,3.2s-1.8,1.2-3.1,1.2c-0.7,0-1.4-0.2-2.1-0.5s-1.2-0.8-1.6-1.3l0.7-0.7c0.8,1,1.8,1.5,2.9,1.5
			c1,0,1.7-0.3,2.3-0.9s0.8-1.4,0.8-2.4v-1.3c-0.7,1-1.8,1.6-3.3,1.6c-1.2,0-2.2-0.5-2.9-1.5s-1.1-2.3-1.1-4V4525.6z M171,4525.8
			c0,1.3,0.3,2.4,0.8,3.2s1.3,1.2,2.3,1.2c1.4,0,2.5-0.6,3.1-1.9v-4.9c-0.3-0.7-0.7-1.2-1.2-1.5s-1.1-0.5-1.9-0.5
			c-1,0-1.7,0.4-2.3,1.2S171,4524.3,171,4525.8z"/>
		<path class="st1" d="M192.9,4531c-0.1-0.3-0.2-0.8-0.2-1.5c-0.4,0.5-0.9,0.9-1.6,1.2s-1.3,0.4-2,0.4c-1,0-1.8-0.3-2.5-0.8
			s-0.9-1.3-0.9-2.1c0-1,0.4-1.8,1.3-2.4s2-0.9,3.6-0.9h2.1v-1.2c0-0.8-0.2-1.3-0.7-1.8s-1.1-0.6-2-0.6c-0.8,0-1.5,0.2-2,0.6
			s-0.8,0.9-0.8,1.5l-1.2,0c0-0.8,0.4-1.6,1.2-2.2s1.7-0.9,2.9-0.9c1.2,0,2.1,0.3,2.8,0.9s1,1.4,1,2.5v5c0,1,0.1,1.8,0.3,2.3v0.1
			H192.9z M189.2,4530.2c0.8,0,1.5-0.2,2.1-0.6s1.1-0.9,1.3-1.5v-2.3h-2.1c-1.2,0-2.1,0.2-2.7,0.6s-1,1-1,1.7c0,0.6,0.2,1.1,0.7,1.5
			S188.5,4530.2,189.2,4530.2z"/>
		<path class="st1" d="M198,4520.4l0,1.8c0.4-0.7,0.9-1.1,1.5-1.5s1.2-0.5,2-0.5c1.1,0,2,0.3,2.5,1s0.8,1.6,0.8,2.9v6.9h-1.2v-6.9
			c0-0.9-0.2-1.6-0.6-2.1s-1-0.7-1.9-0.7c-0.7,0-1.4,0.2-1.9,0.7s-1,1.1-1.2,1.8v7.2h-1.2v-10.6H198z"/>
		<path class="st1" d="M207.4,4525.6c0-1.6,0.4-2.9,1.1-3.9s1.7-1.5,3-1.5c1.4,0,2.5,0.6,3.3,1.7v-5.9h1.2v15h-1.1l0-1.4
			c-0.7,1.1-1.8,1.6-3.3,1.6c-1.2,0-2.2-0.5-2.9-1.5s-1.1-2.3-1.1-4V4525.6z M208.6,4525.8c0,1.3,0.3,2.4,0.8,3.2s1.3,1.2,2.3,1.2
			c1.4,0,2.5-0.6,3.1-1.9v-5c-0.6-1.4-1.6-2.1-3-2.1c-1,0-1.7,0.4-2.3,1.2S208.6,4524.3,208.6,4525.8z"/>
	</g>
	<g class="st0">
		<path class="st1" d="M125.8,4551.6c-0.2,1.5-0.7,2.6-1.6,3.4s-2.1,1.2-3.6,1.2c-1.1,0-2-0.3-2.8-0.8s-1.4-1.3-1.9-2.2
			s-0.7-2.1-0.7-3.3v-1.8c0-1.3,0.2-2.4,0.7-3.4s1.1-1.7,1.9-2.3s1.8-0.8,2.9-0.8c1.5,0,2.7,0.4,3.6,1.2s1.4,2,1.5,3.4h-1.2
			c-0.3-2.4-1.6-3.6-3.9-3.6c-1.3,0-2.3,0.5-3.1,1.4c-0.8,1-1.1,2.3-1.1,4v1.7c0,1.6,0.4,3,1.1,3.9s1.8,1.5,3,1.5
			c1.3,0,2.2-0.3,2.8-0.9s1-1.5,1.2-2.7H125.8z"/>
		<path class="st1" d="M127.8,4550.6c0-1,0.2-1.9,0.6-2.7s1-1.4,1.7-1.9s1.5-0.7,2.4-0.7c1.4,0,2.5,0.5,3.4,1.5s1.3,2.3,1.3,3.9v0.2
			c0,1-0.2,1.9-0.6,2.8s-0.9,1.4-1.7,1.9s-1.5,0.7-2.5,0.7c-1.4,0-2.5-0.5-3.4-1.5s-1.3-2.3-1.3-3.9V4550.6z M129,4550.9
			c0,1.3,0.3,2.3,1,3.1s1.5,1.2,2.6,1.2c1.1,0,1.9-0.4,2.6-1.2s1-1.9,1-3.2v-0.2c0-0.8-0.1-1.5-0.4-2.2s-0.7-1.2-1.3-1.6
			s-1.2-0.6-1.9-0.6c-1,0-1.9,0.4-2.5,1.2s-1,1.9-1,3.2V4550.9z"/>
		<path class="st1" d="M140.8,4545.4l0,1.8c0.4-0.7,0.9-1.1,1.5-1.5s1.2-0.5,2-0.5c1.1,0,2,0.3,2.5,1s0.8,1.6,0.8,2.9v6.9h-1.2v-6.9
			c0-0.9-0.2-1.6-0.6-2.1s-1-0.7-1.9-0.7c-0.7,0-1.4,0.2-1.9,0.7s-1,1.1-1.2,1.8v7.2h-1.2v-10.6H140.8z"/>
		<path class="st1" d="M157,4553.3c0-0.6-0.2-1-0.7-1.4s-1.2-0.6-2.1-0.8s-1.7-0.4-2.2-0.7s-0.9-0.6-1.2-0.9s-0.4-0.8-0.4-1.3
			c0-0.8,0.3-1.5,1-2.1s1.6-0.8,2.7-0.8c1.2,0,2.1,0.3,2.8,0.9s1.1,1.3,1.1,2.3h-1.2c0-0.6-0.3-1.1-0.8-1.5s-1.2-0.6-2-0.6
			c-0.8,0-1.4,0.2-1.9,0.5s-0.7,0.8-0.7,1.3c0,0.5,0.2,0.9,0.6,1.2s1.1,0.6,2.1,0.8s1.8,0.5,2.3,0.8s0.9,0.6,1.1,1s0.4,0.8,0.4,1.4
			c0,0.9-0.4,1.6-1.1,2.1s-1.7,0.8-2.8,0.8c-1.2,0-2.2-0.3-3-0.9s-1.1-1.3-1.1-2.3h1.2c0,0.7,0.3,1.2,0.9,1.6s1.2,0.6,2.1,0.6
			c0.8,0,1.5-0.2,2-0.5S157,4553.9,157,4553.3z"/>
		<path class="st1" d="M167.6,4554.7c-0.7,1-1.8,1.5-3.4,1.5c-1.1,0-2-0.3-2.6-1s-0.9-1.6-0.9-2.9v-6.9h1.2v6.7c0,2,0.8,3,2.4,3
			c1.7,0,2.8-0.7,3.2-2.1v-7.6h1.2v10.6h-1.1L167.6,4554.7z"/>
		<path class="st1" d="M173.1,4556h-1.2v-15h1.2V4556z"/>
		<path class="st1" d="M178.1,4542.7v2.7h2.2v1h-2.2v7c0,0.6,0.1,1,0.3,1.3c0.2,0.3,0.6,0.4,1.1,0.4c0.2,0,0.5,0,0.9-0.1l0,0.9
			c-0.3,0.1-0.7,0.2-1.2,0.2c-0.8,0-1.4-0.2-1.7-0.7s-0.5-1.2-0.5-2.1v-7.1H175v-1h1.9v-2.7H178.1z"/>
		<path class="st1" d="M182.6,4542.4c0-0.2,0.1-0.4,0.2-0.6c0.1-0.2,0.3-0.2,0.6-0.2s0.4,0.1,0.6,0.2c0.1,0.2,0.2,0.3,0.2,0.6
			s-0.1,0.4-0.2,0.6c-0.1,0.1-0.3,0.2-0.6,0.2s-0.4-0.1-0.6-0.2C182.7,4542.8,182.6,4542.6,182.6,4542.4z M184,4556h-1.2v-10.6h1.2
			V4556z"/>
		<path class="st1" d="M188.3,4545.4l0,1.8c0.4-0.7,0.9-1.1,1.5-1.5s1.2-0.5,2-0.5c1.1,0,2,0.3,2.5,1s0.8,1.6,0.8,2.9v6.9H194v-6.9
			c0-0.9-0.2-1.6-0.6-2.1s-1-0.7-1.9-0.7c-0.7,0-1.4,0.2-1.9,0.7s-1,1.1-1.2,1.8v7.2h-1.2v-10.6H188.3z"/>
		<path class="st1" d="M197.7,4550.6c0-1.7,0.4-3,1.1-3.9s1.7-1.5,3-1.5c1.4,0,2.5,0.6,3.3,1.7l0.1-1.5h1.1v10.4
			c0,1.4-0.4,2.4-1.1,3.2s-1.8,1.2-3.1,1.2c-0.7,0-1.4-0.2-2.1-0.5s-1.2-0.8-1.6-1.3l0.7-0.7c0.8,1,1.8,1.5,2.9,1.5
			c1,0,1.7-0.3,2.3-0.9s0.8-1.4,0.8-2.4v-1.3c-0.7,1-1.8,1.6-3.3,1.6c-1.2,0-2.2-0.5-2.9-1.5s-1.1-2.3-1.1-4V4550.6z M198.9,4550.8
			c0,1.3,0.3,2.4,0.8,3.2s1.3,1.2,2.3,1.2c1.4,0,2.5-0.6,3.1-1.9v-4.9c-0.3-0.7-0.7-1.2-1.2-1.5s-1.1-0.5-1.9-0.5
			c-1,0-1.7,0.4-2.3,1.2S198.9,4549.3,198.9,4550.8z"/>
	</g>
	<g class="st0">
		<path class="st1" d="M337.3,4529.2l0.1,0.3l0.1-0.3l4.5-12.5h1.3L338,4531h-1.2l-5.3-14.2h1.3L337.3,4529.2z"/>
		<path class="st1" d="M345,4517.4c0-0.2,0.1-0.4,0.2-0.6c0.1-0.2,0.3-0.2,0.6-0.2s0.4,0.1,0.6,0.2c0.1,0.2,0.2,0.3,0.2,0.6
			s-0.1,0.4-0.2,0.6c-0.1,0.1-0.3,0.2-0.6,0.2s-0.4-0.1-0.6-0.2C345.1,4517.8,345,4517.6,345,4517.4z M346.4,4531h-1.2v-10.6h1.2
			V4531z"/>
		<path class="st1" d="M355.9,4528.3c0-0.6-0.2-1-0.7-1.4s-1.2-0.6-2.1-0.8s-1.7-0.4-2.2-0.7s-0.9-0.6-1.2-0.9s-0.4-0.8-0.4-1.3
			c0-0.8,0.3-1.5,1-2.1s1.6-0.8,2.7-0.8c1.2,0,2.1,0.3,2.8,0.9s1.1,1.3,1.1,2.3h-1.2c0-0.6-0.3-1.1-0.8-1.5s-1.2-0.6-2-0.6
			c-0.8,0-1.4,0.2-1.9,0.5s-0.7,0.8-0.7,1.3c0,0.5,0.2,0.9,0.6,1.2s1.1,0.6,2.1,0.8s1.8,0.5,2.3,0.8s0.9,0.6,1.1,1s0.4,0.8,0.4,1.4
			c0,0.9-0.4,1.6-1.1,2.1s-1.7,0.8-2.8,0.8c-1.2,0-2.2-0.3-3-0.9s-1.1-1.3-1.1-2.3h1.2c0,0.7,0.3,1.2,0.9,1.6s1.2,0.6,2.1,0.6
			c0.8,0,1.5-0.2,2-0.5S355.9,4528.9,355.9,4528.3z"/>
		<path class="st1" d="M366.5,4529.7c-0.7,1-1.8,1.5-3.4,1.5c-1.1,0-2-0.3-2.6-1s-0.9-1.6-0.9-2.9v-6.9h1.2v6.7c0,2,0.8,3,2.4,3
			c1.7,0,2.8-0.7,3.2-2.1v-7.6h1.2v10.6h-1.1L366.5,4529.7z"/>
		<path class="st1" d="M377.4,4531c-0.1-0.3-0.2-0.8-0.2-1.5c-0.4,0.5-0.9,0.9-1.6,1.2s-1.3,0.4-2,0.4c-1,0-1.8-0.3-2.5-0.8
			s-0.9-1.3-0.9-2.1c0-1,0.4-1.8,1.3-2.4s2-0.9,3.6-0.9h2.1v-1.2c0-0.8-0.2-1.3-0.7-1.8s-1.1-0.6-2-0.6c-0.8,0-1.5,0.2-2,0.6
			s-0.8,0.9-0.8,1.5l-1.2,0c0-0.8,0.4-1.6,1.2-2.2s1.7-0.9,2.9-0.9c1.2,0,2.1,0.3,2.8,0.9s1,1.4,1,2.5v5c0,1,0.1,1.8,0.3,2.3v0.1
			H377.4z M373.7,4530.2c0.8,0,1.5-0.2,2.1-0.6s1.1-0.9,1.3-1.5v-2.3H375c-1.2,0-2.1,0.2-2.7,0.6s-1,1-1,1.7c0,0.6,0.2,1.1,0.7,1.5
			S373,4530.2,373.7,4530.2z"/>
		<path class="st1" d="M382.7,4531h-1.2v-15h1.2V4531z"/>
		<path class="st1" d="M397.4,4531c-0.1-0.3-0.2-0.8-0.2-1.5c-0.4,0.5-0.9,0.9-1.6,1.2s-1.3,0.4-2,0.4c-1,0-1.8-0.3-2.5-0.8
			s-0.9-1.3-0.9-2.1c0-1,0.4-1.8,1.3-2.4s2-0.9,3.6-0.9h2.1v-1.2c0-0.8-0.2-1.3-0.7-1.8s-1.1-0.6-2-0.6c-0.8,0-1.5,0.2-2,0.6
			s-0.8,0.9-0.8,1.5l-1.2,0c0-0.8,0.4-1.6,1.2-2.2s1.7-0.9,2.9-0.9c1.2,0,2.1,0.3,2.8,0.9s1,1.4,1,2.5v5c0,1,0.1,1.8,0.3,2.3v0.1
			H397.4z M393.7,4530.2c0.8,0,1.5-0.2,2.1-0.6s1.1-0.9,1.3-1.5v-2.3h-2.1c-1.2,0-2.1,0.2-2.7,0.6s-1,1-1,1.7c0,0.6,0.2,1.1,0.7,1.5
			S393,4530.2,393.7,4530.2z"/>
		<path class="st1" d="M402.6,4520.4l0,1.8c0.4-0.7,0.9-1.1,1.5-1.5s1.2-0.5,2-0.5c1.1,0,2,0.3,2.5,1s0.8,1.6,0.8,2.9v6.9h-1.2v-6.9
			c0-0.9-0.2-1.6-0.6-2.1s-1-0.7-1.9-0.7c-0.7,0-1.4,0.2-1.9,0.7s-1,1.1-1.2,1.8v7.2h-1.2v-10.6H402.6z"/>
		<path class="st1" d="M412,4525.6c0-1.6,0.4-2.9,1.1-3.9s1.7-1.5,3-1.5c1.4,0,2.5,0.6,3.3,1.7v-5.9h1.2v15h-1.1l0-1.4
			c-0.7,1.1-1.8,1.6-3.3,1.6c-1.2,0-2.2-0.5-2.9-1.5s-1.1-2.3-1.1-4V4525.6z M413.2,4525.8c0,1.3,0.3,2.4,0.8,3.2s1.3,1.2,2.3,1.2
			c1.4,0,2.5-0.6,3.1-1.9v-5c-0.6-1.4-1.6-2.1-3-2.1c-1,0-1.7,0.4-2.3,1.2S413.2,4524.3,413.2,4525.8z"/>
	</g>
	<g class="st0">
		<path class="st1" d="M313,4542.8h-4.9v13.2h-1.2v-13.2H302v-1H313V4542.8z"/>
		<path class="st1" d="M318.1,4556.2c-0.9,0-1.7-0.2-2.4-0.7s-1.3-1.1-1.7-1.9s-0.6-1.7-0.6-2.7v-0.4c0-1,0.2-1.9,0.6-2.7
			s0.9-1.5,1.6-1.9s1.5-0.7,2.3-0.7c1.3,0,2.3,0.4,3.1,1.3s1.1,2.1,1.1,3.6v0.7h-7.5v0.2c0,1.2,0.3,2.2,1,3s1.6,1.2,2.6,1.2
			c0.6,0,1.2-0.1,1.7-0.3s0.9-0.6,1.3-1.1l0.7,0.6C321,4555.6,319.8,4556.2,318.1,4556.2z M317.9,4546.2c-0.9,0-1.6,0.3-2.2,1
			s-1,1.5-1.1,2.6h6.3v-0.1c0-1-0.3-1.8-0.9-2.5S318.8,4546.2,317.9,4546.2z"/>
		<path class="st1" d="M328.3,4555.2c0.8,0,1.5-0.2,2-0.7s0.8-1.1,0.9-1.8h1.1c0,0.6-0.2,1.2-0.6,1.8s-0.9,0.9-1.5,1.2
			s-1.3,0.4-2,0.4c-1.4,0-2.5-0.5-3.3-1.4s-1.2-2.3-1.2-3.9v-0.4c0-1,0.2-2,0.5-2.8s0.9-1.4,1.6-1.9s1.5-0.7,2.4-0.7
			c1.2,0,2.1,0.3,2.9,1s1.2,1.6,1.2,2.7h-1.1c-0.1-0.8-0.4-1.5-0.9-2s-1.2-0.8-2.1-0.8c-1.1,0-1.9,0.4-2.5,1.1s-0.9,1.8-0.9,3.2v0.3
			c0,1.3,0.3,2.4,0.9,3.2S327.2,4555.2,328.3,4555.2z"/>
		<path class="st1" d="M335.8,4547.2c0.4-0.6,0.9-1.1,1.5-1.5s1.3-0.5,2-0.5c1.1,0,2,0.3,2.5,1s0.8,1.6,0.8,2.9v6.9h-1.2v-6.9
			c0-0.9-0.2-1.6-0.6-2.1s-1-0.7-1.9-0.7c-0.7,0-1.4,0.2-1.9,0.7s-1,1.1-1.2,1.8v7.2h-1.2v-15h1.2V4547.2z"/>
		<path class="st1" d="M346.8,4545.4l0,1.8c0.4-0.7,0.9-1.1,1.5-1.5s1.2-0.5,2-0.5c1.1,0,2,0.3,2.5,1s0.8,1.6,0.8,2.9v6.9h-1.2v-6.9
			c0-0.9-0.2-1.6-0.6-2.1s-1-0.7-1.9-0.7c-0.7,0-1.4,0.2-1.9,0.7s-1,1.1-1.2,1.8v7.2h-1.2v-10.6H346.8z"/>
		<path class="st1" d="M356.6,4542.4c0-0.2,0.1-0.4,0.2-0.6c0.1-0.2,0.3-0.2,0.6-0.2s0.4,0.1,0.6,0.2c0.1,0.2,0.2,0.3,0.2,0.6
			s-0.1,0.4-0.2,0.6c-0.1,0.1-0.3,0.2-0.6,0.2s-0.4-0.1-0.6-0.2C356.6,4542.8,356.6,4542.6,356.6,4542.4z M357.9,4556h-1.2v-10.6
			h1.2V4556z"/>
		<path class="st1" d="M365,4555.2c0.8,0,1.5-0.2,2-0.7s0.8-1.1,0.9-1.8h1.1c0,0.6-0.2,1.2-0.6,1.8s-0.9,0.9-1.5,1.2s-1.3,0.4-2,0.4
			c-1.4,0-2.5-0.5-3.3-1.4s-1.2-2.3-1.2-3.9v-0.4c0-1,0.2-2,0.5-2.8s0.9-1.4,1.6-1.9s1.5-0.7,2.4-0.7c1.2,0,2.1,0.3,2.9,1
			s1.2,1.6,1.2,2.7H368c-0.1-0.8-0.4-1.5-0.9-2s-1.2-0.8-2.1-0.8c-1.1,0-1.9,0.4-2.5,1.1s-0.9,1.8-0.9,3.2v0.3
			c0,1.3,0.3,2.4,0.9,3.2S364,4555.2,365,4555.2z"/>
		<path class="st1" d="M378.1,4556c-0.1-0.3-0.2-0.8-0.2-1.5c-0.4,0.5-0.9,0.9-1.6,1.2s-1.3,0.4-2,0.4c-1,0-1.8-0.3-2.5-0.8
			s-0.9-1.3-0.9-2.1c0-1,0.4-1.8,1.3-2.4s2-0.9,3.6-0.9h2.1v-1.2c0-0.8-0.2-1.3-0.7-1.8s-1.1-0.6-2-0.6c-0.8,0-1.5,0.2-2,0.6
			s-0.8,0.9-0.8,1.5l-1.2,0c0-0.8,0.4-1.6,1.2-2.2s1.7-0.9,2.9-0.9c1.2,0,2.1,0.3,2.8,0.9s1,1.4,1,2.5v5c0,1,0.1,1.8,0.3,2.3v0.1
			H378.1z M374.4,4555.2c0.8,0,1.5-0.2,2.1-0.6s1.1-0.9,1.3-1.5v-2.3h-2.1c-1.2,0-2.1,0.2-2.7,0.6s-1,1-1,1.7c0,0.6,0.2,1.1,0.7,1.5
			S373.7,4555.2,374.4,4555.2z"/>
		<path class="st1" d="M383.4,4556h-1.2v-15h1.2V4556z"/>
		<path class="st1" d="M391.7,4556v-14.2h4c1.2,0,2.2,0.3,3.1,0.8s1.6,1.3,2.2,2.3s0.8,2.1,0.8,3.4v1.3c0,1.3-0.3,2.4-0.8,3.4
			s-1.2,1.7-2.2,2.3s-2,0.8-3.2,0.8H391.7z M392.9,4542.8v12.2h2.7c1.5,0,2.7-0.5,3.6-1.5c0.9-1,1.4-2.3,1.4-4v-1.3
			c0-1.6-0.4-2.9-1.3-3.9c-0.9-1-2.1-1.5-3.5-1.5H392.9z"/>
		<path class="st1" d="M408.7,4556.2c-0.9,0-1.7-0.2-2.4-0.7s-1.3-1.1-1.7-1.9s-0.6-1.7-0.6-2.7v-0.4c0-1,0.2-1.9,0.6-2.7
			s0.9-1.5,1.6-1.9s1.5-0.7,2.3-0.7c1.3,0,2.3,0.4,3.1,1.3s1.1,2.1,1.1,3.6v0.7h-7.5v0.2c0,1.2,0.3,2.2,1,3s1.6,1.2,2.6,1.2
			c0.6,0,1.2-0.1,1.7-0.3s0.9-0.6,1.3-1.1l0.7,0.6C411.5,4555.6,410.3,4556.2,408.7,4556.2z M408.4,4546.2c-0.9,0-1.6,0.3-2.2,1
			s-1,1.5-1.1,2.6h6.3v-0.1c0-1-0.3-1.8-0.9-2.5S409.3,4546.2,408.4,4546.2z"/>
		<path class="st1" d="M421.2,4553.3c0-0.6-0.2-1-0.7-1.4s-1.2-0.6-2.1-0.8s-1.7-0.4-2.2-0.7s-0.9-0.6-1.2-0.9s-0.4-0.8-0.4-1.3
			c0-0.8,0.3-1.5,1-2.1s1.6-0.8,2.7-0.8c1.2,0,2.1,0.3,2.8,0.9s1.1,1.3,1.1,2.3h-1.2c0-0.6-0.3-1.1-0.8-1.5s-1.2-0.6-2-0.6
			c-0.8,0-1.4,0.2-1.9,0.5s-0.7,0.8-0.7,1.3c0,0.5,0.2,0.9,0.6,1.2s1.1,0.6,2.1,0.8s1.8,0.5,2.3,0.8s0.9,0.6,1.1,1s0.4,0.8,0.4,1.4
			c0,0.9-0.4,1.6-1.1,2.1s-1.7,0.8-2.8,0.8c-1.2,0-2.2-0.3-3-0.9s-1.1-1.3-1.1-2.3h1.2c0,0.7,0.3,1.2,0.9,1.6s1.2,0.6,2.1,0.6
			c0.8,0,1.5-0.2,2-0.5S421.2,4553.9,421.2,4553.3z"/>
		<path class="st1" d="M425,4542.4c0-0.2,0.1-0.4,0.2-0.6c0.1-0.2,0.3-0.2,0.6-0.2s0.4,0.1,0.6,0.2c0.1,0.2,0.2,0.3,0.2,0.6
			s-0.1,0.4-0.2,0.6c-0.1,0.1-0.3,0.2-0.6,0.2s-0.4-0.1-0.6-0.2C425,4542.8,425,4542.6,425,4542.4z M426.3,4556h-1.2v-10.6h1.2V4556
			z"/>
		<path class="st1" d="M429,4550.6c0-1.7,0.4-3,1.1-3.9s1.7-1.5,3-1.5c1.4,0,2.5,0.6,3.3,1.7l0.1-1.5h1.1v10.4
			c0,1.4-0.4,2.4-1.1,3.2s-1.8,1.2-3.1,1.2c-0.7,0-1.4-0.2-2.1-0.5s-1.2-0.8-1.6-1.3l0.7-0.7c0.8,1,1.8,1.5,2.9,1.5
			c1,0,1.7-0.3,2.3-0.9s0.8-1.4,0.8-2.4v-1.3c-0.7,1-1.8,1.6-3.3,1.6c-1.2,0-2.2-0.5-2.9-1.5s-1.1-2.3-1.1-4V4550.6z M430.2,4550.8
			c0,1.3,0.3,2.4,0.8,3.2s1.3,1.2,2.3,1.2c1.4,0,2.5-0.6,3.1-1.9v-4.9c-0.3-0.7-0.7-1.2-1.2-1.5s-1.1-0.5-1.9-0.5
			c-1,0-1.7,0.4-2.3,1.2S430.2,4549.3,430.2,4550.8z"/>
		<path class="st1" d="M441.7,4545.4l0,1.8c0.4-0.7,0.9-1.1,1.5-1.5s1.2-0.5,2-0.5c1.1,0,2,0.3,2.5,1s0.8,1.6,0.8,2.9v6.9h-1.2v-6.9
			c0-0.9-0.2-1.6-0.6-2.1s-1-0.7-1.9-0.7c-0.7,0-1.4,0.2-1.9,0.7s-1,1.1-1.2,1.8v7.2h-1.2v-10.6H441.7z"/>
	</g>
	<g class="st0">
		<path class="st1" d="M530.9,4531v-14.2h4c1.2,0,2.2,0.3,3.1,0.8s1.6,1.3,2.2,2.3s0.8,2.1,0.8,3.4v1.3c0,1.3-0.3,2.4-0.8,3.4
			s-1.2,1.7-2.2,2.3s-2,0.8-3.2,0.8H530.9z M532.1,4517.8v12.2h2.7c1.5,0,2.7-0.5,3.6-1.5c0.9-1,1.4-2.3,1.4-4v-1.3
			c0-1.6-0.4-2.9-1.3-3.9c-0.9-1-2.1-1.5-3.5-1.5H532.1z"/>
		<path class="st1" d="M547.8,4531.2c-0.9,0-1.7-0.2-2.4-0.7s-1.3-1.1-1.7-1.9s-0.6-1.7-0.6-2.7v-0.4c0-1,0.2-1.9,0.6-2.7
			s0.9-1.5,1.6-1.9s1.5-0.7,2.3-0.7c1.3,0,2.3,0.4,3.1,1.3s1.1,2.1,1.1,3.6v0.7h-7.5v0.2c0,1.2,0.3,2.2,1,3s1.6,1.2,2.6,1.2
			c0.6,0,1.2-0.1,1.7-0.3s0.9-0.6,1.3-1.1l0.7,0.6C550.7,4530.6,549.4,4531.2,547.8,4531.2z M547.6,4521.2c-0.9,0-1.6,0.3-2.2,1
			s-1,1.5-1.1,2.6h6.3v-0.1c0-1-0.3-1.8-0.9-2.5S548.5,4521.2,547.6,4521.2z"/>
		<path class="st1" d="M557.2,4529.4l3.2-9h1.2l-3.9,10.6h-0.9l-4-10.6h1.2L557.2,4529.4z"/>
		<path class="st1" d="M567.5,4531.2c-0.9,0-1.7-0.2-2.4-0.7s-1.3-1.1-1.7-1.9s-0.6-1.7-0.6-2.7v-0.4c0-1,0.2-1.9,0.6-2.7
			s0.9-1.5,1.6-1.9s1.5-0.7,2.3-0.7c1.3,0,2.3,0.4,3.1,1.3s1.1,2.1,1.1,3.6v0.7h-7.5v0.2c0,1.2,0.3,2.2,1,3s1.6,1.2,2.6,1.2
			c0.6,0,1.2-0.1,1.7-0.3s0.9-0.6,1.3-1.1l0.7,0.6C570.4,4530.6,569.1,4531.2,567.5,4531.2z M567.3,4521.2c-0.9,0-1.6,0.3-2.2,1
			s-1,1.5-1.1,2.6h6.3v-0.1c0-1-0.3-1.8-0.9-2.5S568.2,4521.2,567.3,4521.2z"/>
		<path class="st1" d="M575.1,4531h-1.2v-15h1.2V4531z"/>
		<path class="st1" d="M577.6,4525.6c0-1,0.2-1.9,0.6-2.7s1-1.4,1.7-1.9s1.5-0.7,2.4-0.7c1.4,0,2.5,0.5,3.4,1.5s1.3,2.3,1.3,3.9v0.2
			c0,1-0.2,1.9-0.6,2.8s-0.9,1.4-1.7,1.9s-1.5,0.7-2.5,0.7c-1.4,0-2.5-0.5-3.4-1.5s-1.3-2.3-1.3-3.9V4525.6z M578.8,4525.9
			c0,1.3,0.3,2.3,1,3.1s1.5,1.2,2.6,1.2c1.1,0,1.9-0.4,2.6-1.2s1-1.9,1-3.2v-0.2c0-0.8-0.1-1.5-0.4-2.2s-0.7-1.2-1.3-1.6
			s-1.2-0.6-1.9-0.6c-1,0-1.9,0.4-2.5,1.2s-1,1.9-1,3.2V4525.9z"/>
		<path class="st1" d="M597.9,4525.8c0,1.6-0.4,3-1.1,3.9s-1.7,1.5-2.9,1.5c-1.4,0-2.6-0.5-3.3-1.5v5.4h-1.2v-14.6h1.1l0.1,1.5
			c0.8-1.1,1.9-1.7,3.3-1.7c1.3,0,2.3,0.5,3,1.4s1.1,2.3,1.1,4V4525.8z M596.8,4525.6c0-1.3-0.3-2.4-0.8-3.2s-1.3-1.2-2.3-1.2
			c-0.7,0-1.3,0.2-1.8,0.5s-0.9,0.8-1.2,1.5v5.1c0.3,0.6,0.7,1.1,1.2,1.4s1.1,0.5,1.8,0.5c1,0,1.7-0.4,2.3-1.2
			S596.8,4527.1,596.8,4525.6z"/>
		<path class="st1" d="M601.6,4520.4l0,1.7c0.4-0.6,0.9-1.1,1.5-1.4s1.2-0.5,2-0.5c1.7,0,2.7,0.7,3.2,2.1c0.4-0.7,0.9-1.2,1.5-1.5
			s1.3-0.5,2.1-0.5c2.3,0,3.4,1.2,3.5,3.7v7.1h-1.2v-7c0-0.9-0.2-1.6-0.6-2.1s-1.1-0.7-2-0.7c-0.8,0-1.5,0.3-2.1,0.8s-0.9,1.2-1,1.9
			v7h-1.2v-7.1c0-0.9-0.2-1.6-0.6-2s-1.1-0.7-1.9-0.7c-0.7,0-1.4,0.2-1.9,0.6s-0.9,1-1.2,1.9v7.2h-1.2v-10.6H601.6z"/>
		<path class="st1" d="M622.3,4531.2c-0.9,0-1.7-0.2-2.4-0.7s-1.3-1.1-1.7-1.9s-0.6-1.7-0.6-2.7v-0.4c0-1,0.2-1.9,0.6-2.7
			s0.9-1.5,1.6-1.9s1.5-0.7,2.3-0.7c1.3,0,2.3,0.4,3.1,1.3s1.1,2.1,1.1,3.6v0.7h-7.5v0.2c0,1.2,0.3,2.2,1,3s1.6,1.2,2.6,1.2
			c0.6,0,1.2-0.1,1.7-0.3s0.9-0.6,1.3-1.1l0.7,0.6C625.2,4530.6,624,4531.2,622.3,4531.2z M622.1,4521.2c-0.9,0-1.6,0.3-2.2,1
			s-1,1.5-1.1,2.6h6.3v-0.1c0-1-0.3-1.8-0.9-2.5S623,4521.2,622.1,4521.2z"/>
		<path class="st1" d="M629.7,4520.4l0,1.8c0.4-0.7,0.9-1.1,1.5-1.5s1.2-0.5,2-0.5c1.1,0,2,0.3,2.5,1s0.8,1.6,0.8,2.9v6.9h-1.2v-6.9
			c0-0.9-0.2-1.6-0.6-2.1s-1-0.7-1.9-0.7c-0.7,0-1.4,0.2-1.9,0.7s-1,1.1-1.2,1.8v7.2h-1.2v-10.6H629.7z"/>
		<path class="st1" d="M641.4,4517.7v2.7h2.2v1h-2.2v7c0,0.6,0.1,1,0.3,1.3c0.2,0.3,0.6,0.4,1.1,0.4c0.2,0,0.5,0,0.9-0.1l0,0.9
			c-0.3,0.1-0.7,0.2-1.2,0.2c-0.8,0-1.4-0.2-1.7-0.7s-0.5-1.2-0.5-2.1v-7.1h-1.9v-1h1.9v-2.7H641.4z"/>
	</g>
	<g class="st0">
		<path class="st1" d="M748.2,4531v-14.2h4c1.2,0,2.2,0.3,3.1,0.8c0.9,0.5,1.6,1.3,2.2,2.3s0.8,2.1,0.8,3.4v1.3
			c0,1.3-0.3,2.4-0.8,3.4c-0.5,1-1.2,1.7-2.2,2.3c-0.9,0.5-2,0.8-3.2,0.8H748.2z M749.4,4517.8v12.2h2.7c1.5,0,2.7-0.5,3.6-1.5
			c0.9-1,1.4-2.3,1.4-4v-1.3c0-1.6-0.4-2.9-1.3-3.9c-0.9-1-2.1-1.5-3.5-1.5H749.4z"/>
		<path class="st1" d="M765.2,4531.2c-0.9,0-1.7-0.2-2.4-0.7c-0.7-0.4-1.3-1.1-1.7-1.9c-0.4-0.8-0.6-1.7-0.6-2.7v-0.4
			c0-1,0.2-1.9,0.6-2.7c0.4-0.8,0.9-1.5,1.6-1.9s1.5-0.7,2.3-0.7c1.3,0,2.3,0.4,3.1,1.3s1.1,2.1,1.1,3.6v0.7h-7.5v0.2
			c0,1.2,0.3,2.2,1,3c0.7,0.8,1.6,1.2,2.6,1.2c0.6,0,1.2-0.1,1.7-0.3s0.9-0.6,1.3-1.1l0.7,0.6C768,4530.6,766.8,4531.2,765.2,4531.2
			z M764.9,4521.2c-0.9,0-1.6,0.3-2.2,1c-0.6,0.6-1,1.5-1.1,2.6h6.3v-0.1c0-1-0.3-1.8-0.9-2.5S765.8,4521.2,764.9,4521.2z"/>
		<path class="st1" d="M779.9,4525.8c0,1.6-0.4,3-1.1,3.9c-0.7,1-1.7,1.5-2.9,1.5c-1.4,0-2.6-0.5-3.3-1.5v5.4h-1.2v-14.6h1.1
			l0.1,1.5c0.8-1.1,1.9-1.7,3.3-1.7c1.3,0,2.3,0.5,3,1.4c0.7,1,1.1,2.3,1.1,4V4525.8z M778.7,4525.6c0-1.3-0.3-2.4-0.8-3.2
			c-0.6-0.8-1.3-1.2-2.3-1.2c-0.7,0-1.3,0.2-1.8,0.5c-0.5,0.3-0.9,0.8-1.2,1.5v5.1c0.3,0.6,0.7,1.1,1.2,1.4c0.5,0.3,1.1,0.5,1.8,0.5
			c1,0,1.7-0.4,2.3-1.2C778.5,4528.2,778.7,4527.1,778.7,4525.6z"/>
		<path class="st1" d="M783.8,4531h-1.2v-15h1.2V4531z"/>
		<path class="st1" d="M786.3,4525.6c0-1,0.2-1.9,0.6-2.7c0.4-0.8,1-1.4,1.7-1.9c0.7-0.5,1.5-0.7,2.4-0.7c1.4,0,2.5,0.5,3.4,1.5
			c0.9,1,1.3,2.3,1.3,3.9v0.2c0,1-0.2,1.9-0.6,2.8c-0.4,0.8-0.9,1.4-1.7,1.9c-0.7,0.4-1.5,0.7-2.5,0.7c-1.4,0-2.5-0.5-3.4-1.5
			c-0.9-1-1.3-2.3-1.3-3.9V4525.6z M787.5,4525.9c0,1.3,0.3,2.3,1,3.1s1.5,1.2,2.6,1.2c1.1,0,1.9-0.4,2.6-1.2s1-1.9,1-3.2v-0.2
			c0-0.8-0.2-1.5-0.4-2.2c-0.3-0.7-0.7-1.2-1.3-1.6c-0.5-0.4-1.2-0.6-1.9-0.6c-1,0-1.9,0.4-2.5,1.2c-0.7,0.8-1,1.9-1,3.2V4525.9z"/>
		<path class="st1" d="M801.4,4529.3l3.1-8.9h1.3l-4.5,12.4l-0.2,0.5c-0.6,1.3-1.5,1.9-2.7,1.9c-0.3,0-0.6,0-0.9-0.1l0-1l0.6,0.1
			c0.6,0,1-0.1,1.4-0.4c0.4-0.3,0.7-0.8,0.9-1.5l0.5-1.4l-4-10.5h1.3L801.4,4529.3z"/>
		<path class="st1" d="M808.6,4520.4l0,1.7c0.4-0.6,0.9-1.1,1.5-1.4s1.2-0.5,2-0.5c1.7,0,2.7,0.7,3.2,2.1c0.4-0.7,0.9-1.2,1.5-1.5
			c0.6-0.4,1.3-0.5,2.1-0.5c2.3,0,3.4,1.2,3.5,3.7v7.1h-1.2v-7c0-0.9-0.2-1.6-0.6-2.1s-1.1-0.7-2-0.7c-0.8,0-1.5,0.3-2.1,0.8
			c-0.6,0.5-0.9,1.2-1,1.9v7h-1.2v-7.1c0-0.9-0.2-1.6-0.6-2s-1.1-0.7-1.9-0.7c-0.7,0-1.4,0.2-1.9,0.6s-0.9,1-1.2,1.9v7.2h-1.2v-10.6
			H808.6z"/>
		<path class="st1" d="M829.3,4531.2c-0.9,0-1.7-0.2-2.4-0.7c-0.7-0.4-1.3-1.1-1.7-1.9c-0.4-0.8-0.6-1.7-0.6-2.7v-0.4
			c0-1,0.2-1.9,0.6-2.7c0.4-0.8,0.9-1.5,1.6-1.9s1.5-0.7,2.3-0.7c1.3,0,2.3,0.4,3.1,1.3s1.1,2.1,1.1,3.6v0.7h-7.5v0.2
			c0,1.2,0.3,2.2,1,3c0.7,0.8,1.6,1.2,2.6,1.2c0.6,0,1.2-0.1,1.7-0.3s0.9-0.6,1.3-1.1l0.7,0.6C832.2,4530.6,831,4531.2,829.3,4531.2
			z M829.1,4521.2c-0.9,0-1.6,0.3-2.2,1c-0.6,0.6-1,1.5-1.1,2.6h6.3v-0.1c0-1-0.3-1.8-0.9-2.5S830,4521.2,829.1,4521.2z"/>
		<path class="st1" d="M836.7,4520.4l0,1.8c0.4-0.7,0.9-1.1,1.5-1.5c0.6-0.3,1.2-0.5,2-0.5c1.1,0,2,0.3,2.5,1
			c0.6,0.6,0.8,1.6,0.8,2.9v6.9h-1.2v-6.9c0-0.9-0.2-1.6-0.6-2.1c-0.4-0.5-1-0.7-1.9-0.7c-0.7,0-1.4,0.2-1.9,0.7s-1,1.1-1.2,1.8v7.2
			h-1.2v-10.6H836.7z"/>
		<path class="st1" d="M848.4,4517.7v2.7h2.2v1h-2.2v7c0,0.6,0.1,1,0.3,1.3c0.2,0.3,0.6,0.4,1.1,0.4c0.2,0,0.5,0,0.9-0.1l0,0.9
			c-0.3,0.1-0.7,0.2-1.2,0.2c-0.8,0-1.4-0.2-1.7-0.7c-0.4-0.5-0.5-1.2-0.5-2.1v-7.1h-1.9v-1h1.9v-2.7H848.4z"/>
	</g>
	<g class="st0">
		<path class="st1" d="M980.8,4516.8v9.7c0,1-0.2,1.8-0.6,2.5c-0.4,0.7-1,1.3-1.8,1.6c-0.8,0.4-1.6,0.6-2.6,0.6
			c-1.5,0-2.7-0.4-3.6-1.2c-0.9-0.8-1.4-1.9-1.4-3.4v-9.8h1.2v9.6c0,1.2,0.3,2.1,1,2.8s1.6,1,2.8,1s2.1-0.3,2.8-1
			c0.7-0.7,1-1.6,1-2.8v-9.6H980.8z"/>
		<path class="st1" d="M992.4,4525.8c0,1.6-0.4,3-1.1,3.9c-0.7,1-1.7,1.5-2.9,1.5c-1.4,0-2.6-0.5-3.3-1.5v5.4h-1.2v-14.6h1.1
			l0.1,1.5c0.8-1.1,1.9-1.7,3.3-1.7c1.3,0,2.3,0.5,3,1.4c0.7,1,1.1,2.3,1.1,4V4525.8z M991.2,4525.6c0-1.3-0.3-2.4-0.8-3.2
			c-0.6-0.8-1.3-1.2-2.3-1.2c-0.7,0-1.3,0.2-1.8,0.5c-0.5,0.3-0.9,0.8-1.2,1.5v5.1c0.3,0.6,0.7,1.1,1.2,1.4c0.5,0.3,1.1,0.5,1.8,0.5
			c1,0,1.7-0.4,2.3-1.2C990.9,4528.2,991.2,4527.1,991.2,4525.6z"/>
		<path class="st1" d="M994.5,4525.6c0-1.7,0.4-3,1.1-3.9s1.7-1.5,3-1.5c1.4,0,2.5,0.6,3.3,1.7l0.1-1.5h1.1v10.4
			c0,1.4-0.4,2.4-1.1,3.2s-1.8,1.2-3.1,1.2c-0.7,0-1.4-0.2-2.1-0.5c-0.7-0.3-1.2-0.8-1.6-1.3l0.7-0.7c0.8,1,1.8,1.5,2.9,1.5
			c1,0,1.7-0.3,2.3-0.9s0.8-1.4,0.8-2.4v-1.3c-0.7,1-1.8,1.6-3.3,1.6c-1.2,0-2.2-0.5-2.9-1.5s-1.1-2.3-1.1-4V4525.6z M995.7,4525.8
			c0,1.3,0.3,2.4,0.8,3.2c0.5,0.8,1.3,1.2,2.3,1.2c1.4,0,2.5-0.6,3.1-1.9v-4.9c-0.3-0.7-0.7-1.2-1.2-1.5c-0.5-0.4-1.1-0.5-1.9-0.5
			c-1,0-1.7,0.4-2.3,1.2S995.7,4524.3,995.7,4525.8z"/>
		<path class="st1" d="M1010.9,4521.4c-0.2,0-0.5-0.1-0.8-0.1c-0.7,0-1.3,0.2-1.9,0.6c-0.5,0.4-0.9,1-1.1,1.8v7.3h-1.2v-10.6h1.1
			l0,1.7c0.6-1.2,1.6-1.9,3-1.9c0.3,0,0.6,0,0.8,0.1L1010.9,4521.4z"/>
		<path class="st1" d="M1019.1,4531c-0.1-0.3-0.2-0.8-0.2-1.5c-0.4,0.5-0.9,0.9-1.6,1.2s-1.3,0.4-2,0.4c-1,0-1.8-0.3-2.5-0.8
			c-0.6-0.6-0.9-1.3-0.9-2.1c0-1,0.4-1.8,1.3-2.4c0.9-0.6,2-0.9,3.6-0.9h2.1v-1.2c0-0.8-0.2-1.3-0.7-1.8c-0.5-0.4-1.1-0.6-2-0.6
			c-0.8,0-1.5,0.2-2,0.6c-0.5,0.4-0.8,0.9-0.8,1.5l-1.2,0c0-0.8,0.4-1.6,1.2-2.2s1.7-0.9,2.9-0.9c1.2,0,2.1,0.3,2.8,0.9
			c0.7,0.6,1,1.4,1,2.5v5c0,1,0.1,1.8,0.3,2.3v0.1H1019.1z M1015.4,4530.2c0.8,0,1.5-0.2,2.1-0.6s1.1-0.9,1.3-1.5v-2.3h-2.1
			c-1.2,0-2.1,0.2-2.7,0.6c-0.7,0.4-1,1-1,1.7c0,0.6,0.2,1.1,0.7,1.5S1014.7,4530.2,1015.4,4530.2z"/>
		<path class="st1" d="M1022.6,4525.6c0-1.6,0.4-2.9,1.1-3.9s1.7-1.5,3-1.5c1.4,0,2.5,0.6,3.3,1.7v-5.9h1.2v15h-1.1l0-1.4
			c-0.7,1.1-1.8,1.6-3.3,1.6c-1.2,0-2.2-0.5-2.9-1.5c-0.7-1-1.1-2.3-1.1-4V4525.6z M1023.8,4525.8c0,1.3,0.3,2.4,0.8,3.2
			c0.5,0.8,1.3,1.2,2.3,1.2c1.4,0,2.5-0.6,3.1-1.9v-5c-0.6-1.4-1.6-2.1-3-2.1c-1,0-1.7,0.4-2.3,1.2S1023.8,4524.3,1023.8,4525.8z"/>
		<path class="st1" d="M1038.3,4531.2c-0.9,0-1.7-0.2-2.4-0.7c-0.7-0.4-1.3-1.1-1.7-1.9c-0.4-0.8-0.6-1.7-0.6-2.7v-0.4
			c0-1,0.2-1.9,0.6-2.7c0.4-0.8,0.9-1.5,1.6-1.9s1.5-0.7,2.3-0.7c1.3,0,2.3,0.4,3.1,1.3s1.1,2.1,1.1,3.6v0.7h-7.5v0.2
			c0,1.2,0.3,2.2,1,3c0.7,0.8,1.6,1.2,2.6,1.2c0.6,0,1.2-0.1,1.7-0.3s0.9-0.6,1.3-1.1l0.7,0.6
			C1041.2,4530.6,1039.9,4531.2,1038.3,4531.2z M1038.1,4521.2c-0.9,0-1.6,0.3-2.2,1c-0.6,0.6-1,1.5-1.1,2.6h6.3v-0.1
			c0-1-0.3-1.8-0.9-2.5S1039,4521.2,1038.1,4521.2z"/>
		<path class="st1" d="M1050.9,4528.3c0-0.6-0.2-1-0.7-1.4c-0.5-0.4-1.2-0.6-2.1-0.8s-1.7-0.4-2.2-0.7s-0.9-0.6-1.2-0.9
			c-0.3-0.4-0.4-0.8-0.4-1.3c0-0.8,0.3-1.5,1-2.1c0.7-0.5,1.6-0.8,2.7-0.8c1.2,0,2.1,0.3,2.8,0.9s1.1,1.3,1.1,2.3h-1.2
			c0-0.6-0.3-1.1-0.8-1.5s-1.2-0.6-2-0.6c-0.8,0-1.4,0.2-1.9,0.5c-0.5,0.3-0.7,0.8-0.7,1.3c0,0.5,0.2,0.9,0.6,1.2
			c0.4,0.3,1.1,0.6,2.1,0.8s1.8,0.5,2.3,0.8c0.5,0.3,0.9,0.6,1.1,1c0.2,0.4,0.4,0.8,0.4,1.4c0,0.9-0.4,1.6-1.1,2.1
			c-0.7,0.5-1.7,0.8-2.8,0.8c-1.2,0-2.2-0.3-3-0.9c-0.8-0.6-1.1-1.3-1.1-2.3h1.2c0,0.7,0.3,1.2,0.9,1.6c0.5,0.4,1.2,0.6,2.1,0.6
			c0.8,0,1.5-0.2,2-0.5C1050.6,4529.3,1050.9,4528.9,1050.9,4528.3z"/>
	</g>
	<g class="st0">
		<path class="st1" d="M1158.3,4516.8l5.2,12.5l5.3-12.5h1.6v14.2h-1.2v-6.2l0.1-6.3l-5.3,12.5h-0.9l-5.3-12.5l0.1,6.3v6.2h-1.2
			v-14.2H1158.3z"/>
		<path class="st1" d="M1180.4,4531c-0.1-0.3-0.2-0.8-0.2-1.5c-0.4,0.5-0.9,0.9-1.6,1.2s-1.3,0.4-2,0.4c-1,0-1.8-0.3-2.5-0.8
			c-0.6-0.6-0.9-1.3-0.9-2.1c0-1,0.4-1.8,1.3-2.4c0.9-0.6,2-0.9,3.6-0.9h2.1v-1.2c0-0.8-0.2-1.3-0.7-1.8c-0.5-0.4-1.1-0.6-2-0.6
			c-0.8,0-1.5,0.2-2,0.6c-0.5,0.4-0.8,0.9-0.8,1.5l-1.2,0c0-0.8,0.4-1.6,1.2-2.2s1.7-0.9,2.9-0.9c1.2,0,2.1,0.3,2.8,0.9
			c0.7,0.6,1,1.4,1.1,2.5v5c0,1,0.1,1.8,0.3,2.3v0.1H1180.4z M1176.8,4530.2c0.8,0,1.5-0.2,2.1-0.6s1.1-0.9,1.3-1.5v-2.3h-2.1
			c-1.2,0-2.1,0.2-2.7,0.6c-0.7,0.4-1,1-1,1.7c0,0.6,0.2,1.1,0.7,1.5S1176.1,4530.2,1176.8,4530.2z"/>
		<path class="st1" d="M1184.4,4517.4c0-0.2,0.1-0.4,0.2-0.6c0.1-0.2,0.3-0.2,0.6-0.2c0.2,0,0.4,0.1,0.6,0.2
			c0.1,0.2,0.2,0.3,0.2,0.6s-0.1,0.4-0.2,0.6c-0.1,0.1-0.3,0.2-0.6,0.2c-0.2,0-0.4-0.1-0.6-0.2
			C1184.5,4517.8,1184.4,4517.6,1184.4,4517.4z M1185.8,4531h-1.2v-10.6h1.2V4531z"/>
		<path class="st1" d="M1190.1,4520.4l0,1.8c0.4-0.7,0.9-1.1,1.5-1.5c0.6-0.3,1.2-0.5,2-0.5c1.1,0,2,0.3,2.5,1
			c0.6,0.6,0.8,1.6,0.8,2.9v6.9h-1.2v-6.9c0-0.9-0.2-1.6-0.6-2.1c-0.4-0.5-1-0.7-1.9-0.7c-0.7,0-1.4,0.2-1.9,0.7s-1,1.1-1.2,1.8v7.2
			h-1.2v-10.6H1190.1z"/>
		<path class="st1" d="M1201.8,4517.7v2.7h2.2v1h-2.2v7c0,0.6,0.1,1,0.3,1.3c0.2,0.3,0.6,0.4,1.1,0.4c0.2,0,0.5,0,0.9-0.1l0,0.9
			c-0.3,0.1-0.7,0.2-1.2,0.2c-0.8,0-1.4-0.2-1.7-0.7c-0.4-0.5-0.5-1.2-0.5-2.1v-7.1h-1.9v-1h1.9v-2.7H1201.8z"/>
		<path class="st1" d="M1210.5,4531.2c-0.9,0-1.7-0.2-2.4-0.7c-0.7-0.4-1.3-1.1-1.7-1.9c-0.4-0.8-0.6-1.7-0.6-2.7v-0.4
			c0-1,0.2-1.9,0.6-2.7c0.4-0.8,0.9-1.5,1.6-1.9s1.5-0.7,2.3-0.7c1.3,0,2.3,0.4,3.1,1.3s1.1,2.1,1.1,3.6v0.7h-7.5v0.2
			c0,1.2,0.3,2.2,1,3c0.7,0.8,1.6,1.2,2.6,1.2c0.6,0,1.2-0.1,1.7-0.3s0.9-0.6,1.3-1.1l0.7,0.6
			C1213.3,4530.6,1212.1,4531.2,1210.5,4531.2z M1210.3,4521.2c-0.9,0-1.6,0.3-2.2,1c-0.6,0.6-1,1.5-1.1,2.6h6.3v-0.1
			c0-1-0.3-1.8-0.9-2.5S1211.1,4521.2,1210.3,4521.2z"/>
		<path class="st1" d="M1217.8,4520.4l0,1.8c0.4-0.7,0.9-1.1,1.5-1.5c0.6-0.3,1.2-0.5,2-0.5c1.1,0,2,0.3,2.5,1
			c0.6,0.6,0.8,1.6,0.8,2.9v6.9h-1.2v-6.9c0-0.9-0.2-1.6-0.6-2.1c-0.4-0.5-1-0.7-1.9-0.7c-0.7,0-1.4,0.2-1.9,0.7s-1,1.1-1.2,1.8v7.2
			h-1.2v-10.6H1217.8z"/>
		<path class="st1" d="M1234.4,4531c-0.1-0.3-0.2-0.8-0.2-1.5c-0.4,0.5-0.9,0.9-1.6,1.2s-1.3,0.4-2,0.4c-1,0-1.8-0.3-2.5-0.8
			c-0.6-0.6-0.9-1.3-0.9-2.1c0-1,0.4-1.8,1.3-2.4c0.9-0.6,2-0.9,3.6-0.9h2.1v-1.2c0-0.8-0.2-1.3-0.7-1.8c-0.5-0.4-1.1-0.6-2-0.6
			c-0.8,0-1.5,0.2-2,0.6c-0.5,0.4-0.8,0.9-0.8,1.5l-1.2,0c0-0.8,0.4-1.6,1.2-2.2s1.7-0.9,2.9-0.9c1.2,0,2.1,0.3,2.8,0.9
			c0.7,0.6,1,1.4,1.1,2.5v5c0,1,0.1,1.8,0.3,2.3v0.1H1234.4z M1230.7,4530.2c0.8,0,1.5-0.2,2.1-0.6s1.1-0.9,1.3-1.5v-2.3h-2.1
			c-1.2,0-2.1,0.2-2.7,0.6c-0.7,0.4-1,1-1,1.7c0,0.6,0.2,1.1,0.7,1.5S1230,4530.2,1230.7,4530.2z"/>
		<path class="st1" d="M1239.5,4520.4l0,1.8c0.4-0.7,0.9-1.1,1.5-1.5c0.6-0.3,1.2-0.5,2-0.5c1.1,0,2,0.3,2.5,1
			c0.6,0.6,0.8,1.6,0.8,2.9v6.9h-1.2v-6.9c0-0.9-0.2-1.6-0.6-2.1c-0.4-0.5-1-0.7-1.9-0.7c-0.7,0-1.4,0.2-1.9,0.7s-1,1.1-1.2,1.8v7.2
			h-1.2v-10.6H1239.5z"/>
		<path class="st1" d="M1253.3,4530.2c0.8,0,1.5-0.2,2-0.7c0.6-0.5,0.8-1.1,0.9-1.8h1.1c0,0.6-0.2,1.2-0.6,1.8s-0.9,0.9-1.5,1.2
			s-1.3,0.4-2,0.4c-1.4,0-2.5-0.5-3.3-1.4s-1.2-2.3-1.2-3.9v-0.4c0-1,0.2-2,0.5-2.8c0.4-0.8,0.9-1.4,1.6-1.9
			c0.7-0.4,1.5-0.7,2.4-0.7c1.2,0,2.1,0.3,2.9,1s1.2,1.6,1.2,2.7h-1.1c-0.1-0.8-0.4-1.5-0.9-2c-0.5-0.5-1.2-0.8-2.1-0.8
			c-1.1,0-1.9,0.4-2.5,1.1c-0.6,0.8-0.9,1.8-0.9,3.2v0.3c0,1.3,0.3,2.4,0.9,3.2C1251.4,4529.8,1252.2,4530.2,1253.3,4530.2z"/>
		<path class="st1" d="M1263.8,4531.2c-0.9,0-1.7-0.2-2.4-0.7c-0.7-0.4-1.3-1.1-1.7-1.9c-0.4-0.8-0.6-1.7-0.6-2.7v-0.4
			c0-1,0.2-1.9,0.6-2.7c0.4-0.8,0.9-1.5,1.6-1.9s1.5-0.7,2.3-0.7c1.3,0,2.3,0.4,3.1,1.3s1.1,2.1,1.1,3.6v0.7h-7.5v0.2
			c0,1.2,0.3,2.2,1,3c0.7,0.8,1.6,1.2,2.6,1.2c0.6,0,1.2-0.1,1.7-0.3s0.9-0.6,1.3-1.1l0.7,0.6
			C1266.7,4530.6,1265.4,4531.2,1263.8,4531.2z M1263.6,4521.2c-0.9,0-1.6,0.3-2.2,1c-0.6,0.6-1,1.5-1.1,2.6h6.3v-0.1
			c0-1-0.3-1.8-0.9-2.5S1264.5,4521.2,1263.6,4521.2z"/>
	</g>
	<g class="st0">
		<path class="st1" d="M1161.2,4549.2h-6.7v5.8h7.6v1h-8.8v-14.2h8.8v1h-7.6v5.4h6.7V4549.2z"/>
		<path class="st1" d="M1165.6,4545.4l0,1.8c0.4-0.7,0.9-1.1,1.5-1.5s1.2-0.5,2-0.5c1.1,0,2,0.3,2.5,1s0.8,1.6,0.8,2.9v6.9h-1.2
			v-6.9c0-0.9-0.2-1.6-0.6-2.1s-1-0.7-1.9-0.7c-0.7,0-1.4,0.2-1.9,0.7s-1,1.1-1.2,1.8v7.2h-1.2v-10.6H1165.6z"/>
		<path class="st1" d="M1176.6,4547.2c0.4-0.6,0.9-1.1,1.5-1.5s1.3-0.5,2-0.5c1.1,0,2,0.3,2.5,1s0.8,1.6,0.8,2.9v6.9h-1.2v-6.9
			c0-0.9-0.2-1.6-0.6-2.1s-1-0.7-1.9-0.7c-0.7,0-1.4,0.2-1.9,0.7s-1,1.1-1.2,1.8v7.2h-1.2v-15h1.2V4547.2z"/>
		<path class="st1" d="M1193.1,4556c-0.1-0.3-0.2-0.8-0.2-1.5c-0.4,0.5-0.9,0.9-1.6,1.2s-1.3,0.4-2,0.4c-1,0-1.8-0.3-2.5-0.8
			s-0.9-1.3-0.9-2.1c0-1,0.4-1.8,1.3-2.4s2-0.9,3.6-0.9h2.1v-1.2c0-0.8-0.2-1.3-0.7-1.8s-1.1-0.6-2-0.6c-0.8,0-1.5,0.2-2,0.6
			s-0.8,0.9-0.8,1.5l-1.2,0c0-0.8,0.4-1.6,1.2-2.2s1.7-0.9,2.9-0.9c1.2,0,2.1,0.3,2.8,0.9s1,1.4,1,2.5v5c0,1,0.1,1.8,0.3,2.3v0.1
			H1193.1z M1189.4,4555.2c0.8,0,1.5-0.2,2.1-0.6s1.1-0.9,1.3-1.5v-2.3h-2.1c-1.2,0-2.1,0.2-2.7,0.6s-1,1-1,1.7
			c0,0.6,0.2,1.1,0.7,1.5S1188.7,4555.2,1189.4,4555.2z"/>
		<path class="st1" d="M1198.3,4545.4l0,1.8c0.4-0.7,0.9-1.1,1.5-1.5s1.2-0.5,2-0.5c1.1,0,2,0.3,2.5,1s0.8,1.6,0.8,2.9v6.9h-1.2
			v-6.9c0-0.9-0.2-1.6-0.6-2.1s-1-0.7-1.9-0.7c-0.7,0-1.4,0.2-1.9,0.7s-1,1.1-1.2,1.8v7.2h-1.2v-10.6H1198.3z"/>
		<path class="st1" d="M1212,4555.2c0.8,0,1.5-0.2,2-0.7s0.8-1.1,0.9-1.8h1.1c0,0.6-0.2,1.2-0.6,1.8s-0.9,0.9-1.5,1.2
			s-1.3,0.4-2,0.4c-1.4,0-2.5-0.5-3.3-1.4s-1.2-2.3-1.2-3.9v-0.4c0-1,0.2-2,0.5-2.8s0.9-1.4,1.6-1.9s1.5-0.7,2.4-0.7
			c1.2,0,2.1,0.3,2.9,1s1.2,1.6,1.2,2.7h-1.1c-0.1-0.8-0.3-1.5-0.9-2s-1.2-0.8-2.1-0.8c-1.1,0-1.9,0.4-2.5,1.1s-0.9,1.8-0.9,3.2v0.3
			c0,1.3,0.3,2.4,0.9,3.2S1211,4555.2,1212,4555.2z"/>
		<path class="st1" d="M1222.5,4556.2c-0.9,0-1.7-0.2-2.4-0.7s-1.3-1.1-1.7-1.9s-0.6-1.7-0.6-2.7v-0.4c0-1,0.2-1.9,0.6-2.7
			s0.9-1.5,1.6-1.9s1.5-0.7,2.3-0.7c1.3,0,2.3,0.4,3.1,1.3s1.1,2.1,1.1,3.6v0.7h-7.5v0.2c0,1.2,0.3,2.2,1,3s1.6,1.2,2.6,1.2
			c0.6,0,1.2-0.1,1.7-0.3s0.9-0.6,1.3-1.1l0.7,0.6C1225.4,4555.6,1224.2,4556.2,1222.5,4556.2z M1222.3,4546.2c-0.9,0-1.6,0.3-2.2,1
			s-1,1.5-1.1,2.6h6.3v-0.1c0-1-0.3-1.8-0.9-2.5S1223.2,4546.2,1222.3,4546.2z"/>
		<path class="st1" d="M1229.8,4545.4l0,1.7c0.4-0.6,0.9-1.1,1.5-1.4s1.2-0.5,2-0.5c1.7,0,2.7,0.7,3.2,2.1c0.4-0.7,0.9-1.2,1.5-1.5
			s1.3-0.5,2.1-0.5c2.3,0,3.4,1.2,3.5,3.7v7.1h-1.2v-7c0-0.9-0.2-1.6-0.6-2.1s-1.1-0.7-2-0.7c-0.8,0-1.5,0.3-2.1,0.8s-0.9,1.2-1,1.9
			v7h-1.2v-7.1c0-0.9-0.2-1.6-0.6-2s-1.1-0.7-1.9-0.7c-0.7,0-1.4,0.2-1.9,0.6s-0.9,1-1.2,1.9v7.2h-1.2v-10.6H1229.8z"/>
		<path class="st1" d="M1250.6,4556.2c-0.9,0-1.7-0.2-2.4-0.7s-1.3-1.1-1.7-1.9s-0.6-1.7-0.6-2.7v-0.4c0-1,0.2-1.9,0.6-2.7
			s0.9-1.5,1.6-1.9s1.5-0.7,2.3-0.7c1.3,0,2.3,0.4,3.1,1.3s1.1,2.1,1.1,3.6v0.7h-7.5v0.2c0,1.2,0.3,2.2,1,3s1.6,1.2,2.6,1.2
			c0.6,0,1.2-0.1,1.7-0.3s0.9-0.6,1.3-1.1l0.7,0.6C1253.5,4555.6,1252.2,4556.2,1250.6,4556.2z M1250.4,4546.2c-0.9,0-1.6,0.3-2.2,1
			s-1,1.5-1.1,2.6h6.3v-0.1c0-1-0.3-1.8-0.9-2.5S1251.3,4546.2,1250.4,4546.2z"/>
		<path class="st1" d="M1257.9,4545.4l0,1.8c0.4-0.7,0.9-1.1,1.5-1.5s1.2-0.5,2-0.5c1.1,0,2,0.3,2.5,1s0.8,1.6,0.8,2.9v6.9h-1.2
			v-6.9c0-0.9-0.2-1.6-0.6-2.1s-1-0.7-1.9-0.7c-0.7,0-1.4,0.2-1.9,0.7s-1,1.1-1.2,1.8v7.2h-1.2v-10.6H1257.9z"/>
		<path class="st1" d="M1269.6,4542.7v2.7h2.2v1h-2.2v7c0,0.6,0.1,1,0.3,1.3c0.2,0.3,0.6,0.4,1.1,0.4c0.2,0,0.5,0,0.9-0.1l0,0.9
			c-0.3,0.1-0.7,0.2-1.2,0.2c-0.8,0-1.4-0.2-1.7-0.7s-0.5-1.2-0.5-2.1v-7.1h-1.9v-1h1.9v-2.7H1269.6z"/>
	</g>
	<g class="st0">
		<path class="st1" d="M1166.5,4581c-0.1-0.3-0.2-0.8-0.2-1.5c-0.4,0.5-0.9,0.9-1.6,1.2s-1.3,0.4-2,0.4c-1,0-1.8-0.3-2.5-0.8
			s-0.9-1.3-0.9-2.1c0-1,0.4-1.8,1.3-2.4s2-0.9,3.6-0.9h2.1v-1.2c0-0.8-0.2-1.3-0.7-1.8s-1.1-0.6-2-0.6c-0.8,0-1.5,0.2-2,0.6
			s-0.8,0.9-0.8,1.5l-1.2,0c0-0.8,0.4-1.6,1.2-2.2s1.7-0.9,2.9-0.9c1.2,0,2.1,0.3,2.8,0.9s1,1.4,1,2.5v5c0,1,0.1,1.8,0.3,2.3v0.1
			H1166.5z M1162.8,4580.2c0.8,0,1.5-0.2,2.1-0.6s1.1-0.9,1.3-1.5v-2.3h-2.1c-1.2,0-2.1,0.2-2.7,0.6s-1,1-1,1.7
			c0,0.6,0.2,1.1,0.7,1.5S1162.1,4580.2,1162.8,4580.2z"/>
		<path class="st1" d="M1171.6,4570.4l0,1.8c0.4-0.7,0.9-1.1,1.5-1.5s1.2-0.5,2-0.5c1.1,0,2,0.3,2.5,1s0.8,1.6,0.8,2.9v6.9h-1.2
			v-6.9c0-0.9-0.2-1.6-0.6-2.1s-1-0.7-1.9-0.7c-0.7,0-1.4,0.2-1.9,0.7s-1,1.1-1.2,1.8v7.2h-1.2v-10.6H1171.6z"/>
		<path class="st1" d="M1181,4575.6c0-1.6,0.4-2.9,1.1-3.9s1.7-1.5,3-1.5c1.4,0,2.5,0.6,3.3,1.7v-5.9h1.2v15h-1.1l0-1.4
			c-0.7,1.1-1.8,1.6-3.3,1.6c-1.2,0-2.2-0.5-2.9-1.5s-1.1-2.3-1.1-4V4575.6z M1182.2,4575.8c0,1.3,0.3,2.4,0.8,3.2s1.3,1.2,2.3,1.2
			c1.4,0,2.5-0.6,3.1-1.9v-5c-0.6-1.4-1.6-2.1-3-2.1c-1,0-1.7,0.4-2.3,1.2S1182.2,4574.3,1182.2,4575.8z"/>
		<path class="st1" d="M1205.8,4577.5c0-0.8-0.3-1.4-0.8-1.9s-1.6-0.9-3-1.3s-2.5-0.9-3.2-1.4c-1-0.7-1.4-1.6-1.4-2.7
			c0-1.1,0.4-2,1.3-2.7s2-1,3.4-1c0.9,0,1.8,0.2,2.5,0.5s1.3,0.9,1.7,1.5s0.6,1.4,0.6,2.2h-1.2c0-1-0.3-1.8-1-2.3s-1.6-0.9-2.7-0.9
			c-1.1,0-2,0.2-2.6,0.7c-0.6,0.5-1,1.1-1,1.9c0,0.7,0.3,1.3,0.9,1.8c0.6,0.5,1.5,0.9,2.8,1.2s2.2,0.7,2.9,1.1s1.2,0.8,1.5,1.3
			s0.5,1.1,0.5,1.8c0,1.1-0.4,2-1.3,2.7s-2.1,1-3.5,1c-1,0-1.9-0.2-2.8-0.5s-1.5-0.9-1.9-1.5s-0.6-1.4-0.6-2.2h1.2
			c0,1,0.4,1.8,1.1,2.4s1.7,0.9,3,0.9c1.1,0,2-0.2,2.7-0.7S1205.8,4578.3,1205.8,4577.5z"/>
		<path class="st1" d="M1216.1,4579.7c-0.7,1-1.8,1.5-3.4,1.5c-1.1,0-2-0.3-2.6-1s-0.9-1.6-0.9-2.9v-6.9h1.2v6.7c0,2,0.8,3,2.4,3
			c1.7,0,2.8-0.7,3.2-2.1v-7.6h1.2v10.6h-1.1L1216.1,4579.7z"/>
		<path class="st1" d="M1228.8,4575.8c0,1.6-0.4,3-1.1,3.9s-1.7,1.5-2.9,1.5c-1.4,0-2.6-0.5-3.3-1.5v5.4h-1.2v-14.6h1.1l0.1,1.5
			c0.8-1.1,1.9-1.7,3.3-1.7c1.3,0,2.3,0.5,3,1.4s1.1,2.3,1.1,4V4575.8z M1227.6,4575.6c0-1.3-0.3-2.4-0.8-3.2s-1.3-1.2-2.3-1.2
			c-0.7,0-1.3,0.2-1.8,0.5s-0.9,0.8-1.2,1.5v5.1c0.3,0.6,0.7,1.1,1.2,1.4s1.1,0.5,1.8,0.5c1,0,1.8-0.4,2.3-1.2
			S1227.6,4577.1,1227.6,4575.6z"/>
		<path class="st1" d="M1239.9,4575.8c0,1.6-0.4,3-1.1,3.9s-1.7,1.5-2.9,1.5c-1.4,0-2.6-0.5-3.3-1.5v5.4h-1.2v-14.6h1.1l0.1,1.5
			c0.8-1.1,1.9-1.7,3.3-1.7c1.3,0,2.3,0.5,3,1.4s1.1,2.3,1.1,4V4575.8z M1238.7,4575.6c0-1.3-0.3-2.4-0.8-3.2s-1.3-1.2-2.3-1.2
			c-0.7,0-1.3,0.2-1.8,0.5s-0.9,0.8-1.2,1.5v5.1c0.3,0.6,0.7,1.1,1.2,1.4s1.1,0.5,1.8,0.5c1,0,1.8-0.4,2.3-1.2
			S1238.7,4577.1,1238.7,4575.6z"/>
		<path class="st1" d="M1241.8,4575.6c0-1,0.2-1.9,0.6-2.7s1-1.4,1.7-1.9s1.5-0.7,2.4-0.7c1.4,0,2.5,0.5,3.4,1.5s1.3,2.3,1.3,3.9
			v0.2c0,1-0.2,1.9-0.6,2.8s-0.9,1.4-1.7,1.9s-1.5,0.7-2.5,0.7c-1.4,0-2.5-0.5-3.4-1.5s-1.3-2.3-1.3-3.9V4575.6z M1243,4575.9
			c0,1.3,0.3,2.3,1,3.1s1.5,1.2,2.6,1.2c1.1,0,1.9-0.4,2.6-1.2s1-1.9,1-3.2v-0.2c0-0.8-0.2-1.5-0.4-2.2s-0.7-1.2-1.3-1.6
			s-1.2-0.6-1.9-0.6c-1,0-1.9,0.4-2.5,1.2s-1,1.9-1,3.2V4575.9z"/>
		<path class="st1" d="M1258.6,4571.4c-0.2,0-0.5-0.1-0.8-0.1c-0.7,0-1.3,0.2-1.9,0.6s-0.9,1-1.1,1.8v7.3h-1.2v-10.6h1.1l0,1.7
			c0.6-1.2,1.6-1.9,3-1.9c0.3,0,0.6,0,0.8,0.1L1258.6,4571.4z"/>
		<path class="st1" d="M1262.7,4567.7v2.7h2.2v1h-2.2v7c0,0.6,0.1,1,0.3,1.3c0.2,0.3,0.6,0.4,1.1,0.4c0.2,0,0.5,0,0.9-0.1l0,0.9
			c-0.3,0.1-0.7,0.2-1.2,0.2c-0.8,0-1.4-0.2-1.7-0.7s-0.5-1.2-0.5-2.1v-7.1h-1.9v-1h1.9v-2.7H1262.7z"/>
	</g>
	<g id="Path_3810">
		<rect x="228" y="4422.8" class="st2" width="86.8" height="1.8"/>
	</g>
	<g id="Path_3811">
		<rect x="439.1" y="4422.8" class="st3" width="87.5" height="1.8"/>
	</g>
	<g id="Path_3907">
		<rect x="649.9" y="4422.8" class="st4" width="87" height="1.8"/>
	</g>
	<g id="Line_145">
		<rect x="861.9" y="4422.8" class="st5" width="89.6" height="1.8"/>
	</g>
	<g id="Line_198">
		<rect x="1073" y="4422.8" class="st4" width="89.6" height="1.8"/>
	</g>
	<g id="process-ico1" transform="translate(-95.376)">
		<g id="p-and-c">
			<g id="Group_1169" transform="translate(-1115.636 3216.69)">
				<g id="Group_990">
					<g id="Path_3791">
						<path class="st6" d="M1314.6,1180v54c0,5.5,2.9,10.6,7.7,13.4l46.7,27c4.8,2.8,10.7,2.8,15.5,0l46.7-27
							c4.8-2.8,7.7-7.9,7.7-13.4v-54c0-5.5-2.9-10.6-7.7-13.4l-46.7-27c-4.8-2.8-10.7-2.8-15.5,0l-46.7,27
							C1317.6,1169.4,1314.6,1174.5,1314.6,1180z"/>
						<path class="st7" d="M1376.8,1277.3c-2.8,0-5.7-0.7-8.2-2.2l-46.7-27c-5-2.9-8.2-8.3-8.2-14.2v-54l0,0l0,0
							c0-5.8,3.1-11.3,8.2-14.2l46.7-27c5-2.9,11.3-2.9,16.4,0l46.7,27c5,2.9,8.2,8.3,8.2,14.2v54c0,5.8-3.1,11.3-8.2,14.2l-46.7,27
							C1382.5,1276.6,1379.7,1277.3,1376.8,1277.3z M1376.8,1138.5c-2.5,0-5,0.6-7.3,1.9l-46.7,27c-4.5,2.6-7.3,7.4-7.3,12.6v54
							c0,5.2,2.8,10,7.3,12.6l46.7,27c4.5,2.6,10.1,2.6,14.6,0l46.7-27c4.5-2.6,7.3-7.4,7.3-12.6v-54c0-5.2-2.8-10-7.3-12.6
							l-46.7-27C1381.9,1139.1,1379.3,1138.5,1376.8,1138.5z"/>
					</g>
				</g>
				<g id="Group_1169-2">
					<g id="Path_3891">
						<path class="st6" d="M1393.3,1212c3.6-7,5.4-14.7,5.2-22.6c-1.4-19.2-20.8-20.4-25.8-20.4l-7.7-0.5l3,3.9l-14.1,13.3
							c0,0,4,5,5.3,6.6c1.5,1.8,1.9,2,1.9,2c1.7-1.1,3.4-2.2,5.2-3.1c5.4-3,8.9-2.6,10.7-2c0.8,0.3,1.3,1.2,1,2.1
							c-0.1,0.1-0.1,0.3-0.2,0.4c-1.3,1.6-2.7,3.2-4.2,4.6c-9,6.8-10.3,12.4-10.3,12.4c-2.7,6.8,1.3,15.9,1.3,15.9
							c-0.1,0.9-7.6,6.6-7.6,6.6v9.6h43.5l0.1-10.1L1393.3,1212z"/>
						<path class="st7" d="M1401.2,1241.7H1356v-10.9l0.4-0.3c3-2.2,6.3-5,7.2-6c-0.8-1.9-3.5-9.8-1.1-16.1
							c0.2-0.7,1.9-6.2,10.6-12.8c1.4-1.4,2.8-2.9,4-4.5c0,0,0.1-0.1,0.1-0.2c0.1-0.4-0.1-0.8-0.4-0.9c-1.4-0.5-4.7-1-10,1.9
							c-1.8,0.9-3.5,2-5.1,3.1l-0.4,0.3l-0.4-0.2c-0.2-0.1-0.6-0.2-2.3-2.2c-1.3-1.6-5.3-6.6-5.3-6.6l-0.5-0.6l14.1-13.3l-3.7-4.8
							l9.7,0.6c0,0,0,0,0.1,0c2.5,0,8.8,0.3,14.6,3.1c7.4,3.5,11.4,9.6,12.1,18.1c0.2,7.9-1.6,15.7-5.1,22.7l7.1,18.5L1401.2,1241.7
							z M1357.8,1239.9h41.7l0.1-9l-7.3-19l0.2-0.4c3.5-6.8,5.3-14.5,5.1-22.1c-1.3-18.1-19.3-19.5-24.9-19.5c0,0,0,0,0,0l-5.8-0.4
							l2.3,2.9l-14.1,13.3c1.1,1.4,3.8,4.7,4.8,6c0.6,0.7,1,1.2,1.2,1.4c1.5-1,3.1-1.9,4.7-2.8c5.6-3.1,9.3-2.8,11.4-2
							c1.3,0.5,2,1.9,1.5,3.2c-0.1,0.2-0.2,0.4-0.3,0.6c-1.3,1.7-2.7,3.3-4.3,4.8l-0.1,0.1c-8.6,6.5-10,11.8-10,11.9l0,0.1
							c-2.5,6.4,1.2,15.1,1.3,15.2l0.1,0.2l0,0.2c0,0.4-0.2,1.3-7.6,6.9V1239.9z"/>
					</g>
					<g id="Line_192">
						<rect x="1357.7" y="1229.7" class="st7" width="42.6" height="1.8"/>
					</g>
					<g id="Path_3892">
						<path class="st7" d="M1371,1178.9l-2.5,1.3c-0.5,0.3-1.2,0-1.5-0.5s0-1.2,0.5-1.5l2.5-1.3c0.5-0.3,1.2,0,1.5,0.5
							C1371.8,1178,1371.6,1178.6,1371,1178.9L1371,1178.9z"/>
					</g>
				</g>
			</g>
		</g>
		<g id="Ellipse_186" transform="translate(185 4410)">
			<g>
				<circle class="st7" cx="13.8" cy="13.8" r="13.8"/>
			</g>
			<g>
				<path class="st2" d="M13.8,27.6C6.2,27.6,0,21.4,0,13.8S6.2,0,13.8,0s13.8,6.2,13.8,13.8S21.4,27.6,13.8,27.6z M13.8,1.8
					c-6.6,0-12,5.4-12,12s5.4,12,12,12c6.6,0,12-5.4,12-12S20.4,1.8,13.8,1.8z"/>
			</g>
		</g>
		<g class="st0">
			<path class="st6" d="M200.6,4430h-1.6v-10.8l-3.3,1.2v-1.5l4.7-1.7h0.3V4430z"/>
		</g>
	</g>
	<g id="process-ico2" transform="translate(-95.376)">
		<g id="v-and-td">
			<g id="Group_1114">
				<g id="Group_997" transform="translate(410.141 4354.273)">
					<g id="Path_3797">
						<path class="st6" d="M0,42.4v54c0,5.5,2.9,10.6,7.7,13.4l46.7,27c4.8,2.8,10.7,2.8,15.5,0l46.7-27c4.8-2.8,7.7-7.9,7.7-13.4
							v-54c0-5.5-2.9-10.6-7.7-13.4l-46.7-27c-4.8-2.8-10.7-2.8-15.5,0L7.7,29C2.9,31.8,0,36.9,0,42.4z"/>
						<path class="st8" d="M62.2,139.7c-2.8,0-5.7-0.7-8.2-2.2l-46.7-27c-5-2.9-8.2-8.3-8.2-14.2v-54c0-5.8,3.1-11.3,8.2-14.2
							L54,1.3c5-2.9,11.3-2.9,16.4,0l46.7,27c5,2.9,8.2,8.3,8.2,14.2v54c0,5.8-3.1,11.3-8.2,14.2l-46.7,27
							C67.8,139,65,139.7,62.2,139.7z M62.2,0.9c-2.5,0-5,0.6-7.3,1.9l-46.7,27c-4.5,2.6-7.3,7.4-7.3,12.6v54c0,5.2,2.8,10,7.3,12.6
							l46.7,27c4.5,2.6,10.1,2.6,14.6,0l46.7-27c4.5-2.6,7.3-7.4,7.3-12.6v-54c0-5.2-2.8-10-7.3-12.6l-46.7-27
							C67.2,1.6,64.7,0.9,62.2,0.9z"/>
					</g>
				</g>
				<g id="Group_998" transform="translate(444.847 4385.147)">
					<g id="Path_3798">
						<path class="st3" d="M24,39.3l-0.1,0l-0.1,0c-1.1,0-2.2-0.1-3.2-0.4l-0.7-0.2v-2.7c-0.3-0.1-0.6-0.2-0.8-0.3l-2.1,2.1
							l-0.6-0.4c-0.9-0.6-1.8-1.3-2.5-2l-0.2-0.2c-0.8-0.8-1.5-1.6-2-2.5l-0.4-0.6l1.9-1.9c-0.2-0.4-0.4-0.9-0.6-1.3H9.7l-0.2-0.7
							c-0.2-1.1-0.4-2.1-0.4-3.2v-0.3c0-1.1,0.1-2.2,0.4-3.2l0.2-0.7h2.6c0.2-0.5,0.3-1,0.5-1.4l-1.9-1.9l0.4-0.6
							c0.6-0.9,1.3-1.8,2-2.5l0.2-0.2c0.8-0.8,1.6-1.5,2.6-2l0.6-0.4l1.8,1.8c0.5-0.2,0.9-0.4,1.4-0.6v-2.7l0.7-0.2
							c1.1-0.2,2.1-0.4,3.2-0.4h0.3c1.1,0,2.2,0.1,3.2,0.4l0.7,0.2v2.6c0.6,0.2,1.2,0.5,1.8,0.8l1.7-1.7l0.6,0.4
							c0.9,0.6,1.8,1.3,2.5,2l0.2,0.2c0.8,0.8,1.4,1.6,2,2.5l0.4,0.6l-1.8,1.8c0.2,0.4,0.4,0.9,0.5,1.3h2.5l0.2,0.7
							c0.2,1.1,0.4,2.1,0.4,3.2l0,0.3c0,1.1-0.1,2.2-0.4,3.2l-0.2,0.7h-2.7c-0.2,0.4-0.3,0.8-0.5,1.2l1.8,1.8l-0.4,0.6
							c-0.6,0.9-1.3,1.8-2,2.5l-0.2,0.2c-0.8,0.8-1.6,1.4-2.5,2l-0.6,0.4l-1.9-1.9c-0.4,0.2-0.8,0.3-1.2,0.5v2.6L27.3,39
							C26.2,39.2,25.1,39.3,24,39.3L24,39.3z M21.6,37.4c0.7,0.1,1.4,0.2,2.1,0.2l0.2,0l0.1,0c0.7,0,1.4-0.1,2.1-0.2v-2.5l0.7-0.2
							c0.7-0.2,1.4-0.5,2.1-0.8l0.6-0.3l1.8,1.8c0.6-0.4,1.1-0.9,1.6-1.4l0.2-0.2c0.5-0.5,1-1.1,1.4-1.6l-1.8-1.8l0.4-0.6
							c0.4-0.7,0.7-1.4,0.9-2.1l0.2-0.6h2.5C37,26.4,37,25.7,37,25l0-0.2l0-0.1c0-0.7-0.1-1.4-0.2-2.1h-2.4l-0.2-0.7
							c-0.2-0.8-0.5-1.5-0.8-2.2l-0.3-0.6l1.7-1.7c-0.4-0.6-0.9-1.1-1.4-1.6c0,0-0.1-0.1-0.1-0.1l-0.1-0.1c-0.5-0.5-1.1-1-1.6-1.4
							l-1.6,1.6l-0.6-0.4c-0.8-0.5-1.7-0.9-2.6-1.1l-0.7-0.2v-2.5c-0.7-0.1-1.4-0.2-2.1-0.2l-0.2,0l-0.1,0c-0.7,0-1.4,0.1-2.1,0.2
							v2.5L21,14.4c-0.8,0.2-1.6,0.6-2.3,1l-0.6,0.4L16.4,14c-0.6,0.4-1.1,0.9-1.6,1.4c0,0-0.1,0.1-0.1,0.1l-0.1,0.1
							c-0.5,0.5-1,1.1-1.4,1.6L15,19l-0.3,0.6c-0.4,0.7-0.7,1.5-0.9,2.3l-0.2,0.7h-2.5c-0.1,0.7-0.2,1.4-0.2,2.1l0,0.2l0,0.1
							c0,0.7,0.1,1.4,0.2,2.1h2.7l0.2,0.6c0.2,0.8,0.6,1.5,1,2.2l0.4,0.6l-1.9,1.9c0.4,0.6,0.9,1.1,1.4,1.6c0,0,0.1,0.1,0.1,0.1
							l0.1,0.1c0.5,0.5,1.1,1,1.6,1.4l2-2l0.6,0.3c0.6,0.3,1.2,0.5,1.8,0.7l0.6,0.2V37.4z M24,31.7c-4,0-7.2-3.2-7.2-7.2
							s3.2-7.2,7.2-7.2s7.2,3.2,7.2,7.2c0,3.7-2.8,6.7-6.3,7.1v0.1L24,31.7z M23.8,29.9H24c3,0,5.4-2.4,5.4-5.4c0-3-2.4-5.4-5.4-5.4
							s-5.4,2.4-5.4,5.4C18.6,27.4,20.9,29.8,23.8,29.9z"/>
					</g>
					<g id="Path_3799">
						<path class="st3" d="M23.9,77.7c-7,0-12.6-5.7-12.6-12.6v-9.6L11.1,54c-0.7-4.8-3.4-10.4-7.7-15.8l-0.1-0.1
							c-2.5-3.7-3.9-7.9-4.2-12.3C-1.7,12,8.7,0,22.5-0.8l1.4-0.1l2.3,0v0.1c4.1,0.4,8,1.8,11.5,4.1c5.6,3.7,9.3,9.4,10.6,15.9
							c1.3,6.6,0,13.2-3.8,18.8l-0.1,0.1c-4.3,5.4-7,11-7.7,15.8l-0.2,1.5v9.6C36.5,72,30.9,77.7,23.9,77.7z M23.9,0.9L22.6,1
							C9.9,1.8,0.1,12.8,0.9,25.6c0.3,4.1,1.6,8,3.9,11.4l0,0.1c4.4,5.6,7.3,11.5,8,16.6l0.2,1.7v9.6c0,6,4.9,10.8,10.8,10.8
							c6,0,10.8-4.9,10.8-10.8l0-9.7l0.2-1.6c0.7-5.2,3.6-11.1,8.1-16.7l0-0.1c3.4-5.1,4.7-11.3,3.5-17.4
							c-1.2-6.1-4.7-11.3-9.9-14.8C33.5,2.7,29.9,1.4,26.2,1v0.1l-1.1-0.2l0,0H23.9z"/>
					</g>
					<g id="Line_135">
						<rect x="9.1" y="60.4" class="st3" width="29.6" height="1.8"/>
					</g>
					<g id="Line_136">
						<rect x="12.5" y="55" class="st3" width="23.6" height="1.8"/>
					</g>
				</g>
				<g id="Group_999" transform="translate(410.141 4354.273)">
					<g id="Path_3800">
						<path class="st3" d="M62.2,139.7c-2.8,0-5.7-0.7-8.2-2.2l-46.7-27c-5-2.9-8.2-8.3-8.2-14.2v-54c0-5.8,3.1-11.3,8.2-14.2
							L54,1.3c5-2.9,11.3-2.9,16.4,0l46.7,27c5,2.9,8.2,8.3,8.2,14.2v54c0,5.8-3.1,11.3-8.2,14.2l-46.7,27
							C67.8,139,65,139.7,62.2,139.7z M62.2,0.9c-2.5,0-5,0.6-7.3,1.9l-46.7,27c-4.5,2.6-7.3,7.4-7.3,12.6v54c0,5.2,2.8,10,7.3,12.6
							l46.7,27c4.5,2.6,10.1,2.6,14.6,0l46.7-27c4.5-2.6,7.3-7.4,7.3-12.6v-54c0-5.2-2.8-10-7.3-12.6l-46.7-27
							C67.2,1.6,64.7,0.9,62.2,0.9z"/>
					</g>
				</g>
			</g>
		</g>
		<g id="Group_1193" transform="translate(0 0.416)">
			<g id="Path_3927" transform="translate(397 4409.472)">
				<g>
					<path class="st3" d="M13.8,26.7c-3.4,0-6.7-1.3-9.1-3.8c-2.4-2.4-3.8-5.7-3.8-9.1s1.3-6.7,3.8-9.1c2.4-2.4,5.7-3.8,9.1-3.8
						s6.7,1.3,9.1,3.8c2.4,2.4,3.8,5.7,3.8,9.1s-1.3,6.7-3.8,9.1C20.5,25.4,17.2,26.7,13.8,26.7z"/>
				</g>
				<g>
					<path class="st3" d="M13.8,1.8c-3.2,0-6.2,1.2-8.5,3.5s-3.5,5.3-3.5,8.5S3,20,5.3,22.3s5.3,3.5,8.5,3.5s6.2-1.2,8.5-3.5
						s3.5-5.3,3.5-8.5s-1.2-6.2-3.5-8.5S17,1.8,13.8,1.8 M13.8,0c7.6,0,13.8,6.2,13.8,13.8s-6.2,13.8-13.8,13.8S0,21.4,0,13.8
						S6.2,0,13.8,0z"/>
				</g>
			</g>
			<g class="st0">
				<path class="st6" d="M415.4,4429H407v-1.2l4.4-4.9c0.7-0.7,1.1-1.3,1.4-1.8c0.2-0.5,0.4-0.9,0.4-1.4c0-0.7-0.2-1.2-0.6-1.6
					s-0.9-0.6-1.6-0.6c-0.8,0-1.4,0.2-1.9,0.7c-0.4,0.5-0.7,1.1-0.7,1.9h-1.6c0-1.2,0.4-2.1,1.1-2.9s1.8-1.1,3-1.1
					c1.2,0,2.1,0.3,2.8,0.9c0.7,0.6,1,1.5,1,2.5c0,1.3-0.8,2.8-2.4,4.5l-3.4,3.7h6.4V4429z"/>
			</g>
		</g>
	</g>
	<g id="process-ico3" transform="translate(-95.376)">
		<g id="deve">
			<g id="Group_1115">
				<g id="Group_986" transform="translate(621.282 4354.273)">
					<g id="Path_3785">
						<path class="st6" d="M0,42.4v54c0,5.5,2.9,10.6,7.7,13.4l46.7,27c4.8,2.8,10.7,2.8,15.5,0l46.7-27c4.8-2.8,7.7-7.9,7.7-13.4
							V42.4c0-5.5-2.9-10.6-7.7-13.4l-46.7-27c-4.8-2.8-10.7-2.8-15.5,0L7.7,29C2.9,31.8,0,36.9,0,42.4z"/>
						<path class="st8" d="M62.2,139.7c-2.8,0-5.7-0.7-8.2-2.2l-46.7-27c-5-2.9-8.2-8.3-8.2-14.2v-54l0,0l0,0
							c0-5.8,3.1-11.3,8.2-14.2L54,1.3c5-2.9,11.3-2.9,16.4,0l46.7,27c5,2.9,8.2,8.3,8.2,14.2v53.9c0,5.8-3.1,11.3-8.2,14.2
							l-46.7,27C67.8,139,65,139.7,62.2,139.7z M62.2,0.9c-2.5,0-5,0.6-7.3,1.9l-46.7,27c-4.5,2.6-7.3,7.4-7.3,12.6v54
							c0,5.2,2.8,10,7.3,12.6l46.7,27c4.5,2.6,10.1,2.6,14.6,0l46.7-27c4.5-2.6,7.3-7.4,7.3-12.6V42.4c0-5.2-2.8-10-7.3-12.6
							l-46.7-27C67.2,1.6,64.7,0.9,62.2,0.9z"/>
					</g>
				</g>
				<g id="Group_988" transform="translate(649.183 4389.298)">
					<g id="Group_987" transform="translate(19.411 26.524)">
						<g id="Path_3786">
							<path class="st4" d="M0,8.2V5.9l8.3-3.9v2.5L2.8,7l5.5,2.6v2.5L0,8.2z"/>
						</g>
						<g id="Path_3787">
							<path class="st4" d="M17.3,0h2.4l-7.2,15.7h-2.4L17.3,0z"/>
						</g>
						<g id="Path_3788">
							<path class="st4" d="M29.8,5.9v2.4l-8.3,3.9V9.6L26.9,7l-5.5-2.5V1.9L29.8,5.9z"/>
						</g>
					</g>
					<g id="Path_3789">
						<path class="st4" d="M29.5,69.8l-0.7-0.1c-2.5-0.5-5-1.2-7.4-2.2l-0.6-0.3c-2.4-1-4.7-2.3-6.7-3.8l-0.6-0.4l2.6-6.1
							c-1.4-1.1-2.6-2.3-3.8-3.6l-6.4,2.6l-0.4-0.6c-1.4-2.1-2.7-4.3-3.6-6.7c-0.1-0.2-0.2-0.4-0.2-0.5c0-0.1-0.1-0.2-0.2-0.4
							c-0.9-2.4-1.6-4.8-2-7.3l-0.1-0.7l5.9-2.4C5,35.4,5,33.6,5.1,31.8L-1,29.2l0.1-0.7c0.5-2.5,1.2-5,2.2-7.4c0-0.1,0-0.2,0.2-0.4
							l0,0l0.1-0.2c1-2.4,2.3-4.6,3.8-6.7l0.4-0.6l5.7,2.4c1.2-1.4,2.5-2.8,3.9-4L13,5.5l0.6-0.4c2.1-1.5,4.4-2.7,6.8-3.7L21,1.2
							c2.4-1,4.9-1.7,7.5-2.1L29.2-1l2.4,5.9C33.8,4.7,36,4.7,38.1,5l2.2-5.3l0.7,0.1c2.5,0.5,5,1.2,7.4,2.2L49,2.3
							c2.4,1,4.7,2.3,6.7,3.8l0.6,0.4l-2.4,5.7c1.3,1.2,2.5,2.5,3.5,3.8l5.6-2.2l0.4,0.6c1.4,2.1,2.6,4.3,3.6,6.6
							c0.1,0.2,0.2,0.4,0.2,0.5c0.1,0.1,0.1,0.2,0.2,0.4c0.9,2.4,1.6,4.8,2,7.3l0.1,0.7l-6.1,2.4c0.1,1.7,0,3.4-0.2,5.1l5.8,2.5
							l-0.1,0.7c-0.5,2.5-1.2,4.9-2.2,7.2c0,0.1-0.1,0.3-0.2,0.5l0,0l-0.1,0.2c-1,2.4-2.3,4.6-3.8,6.7l-0.4,0.6L56,53.4
							c-1.1,1.2-2.3,2.4-3.6,3.4l2.4,5.9l-0.6,0.4c-2.1,1.5-4.3,2.7-6.7,3.7l-0.7,0.3c-2.4,1-4.9,1.7-7.4,2.1l-0.7,0.1l-2.4-6.1
							c-1.3,0.1-2.6,0.1-3.9,0L29.5,69.8z M15.7,62.3c1.8,1.3,3.8,2.3,5.8,3.2l0.7,0.3c2,0.8,4.1,1.5,6.3,1.9l2.8-6.5l0.7,0.1
							c1.6,0.2,3.3,0.2,4.9,0l0.7-0.1l2.4,6c2.2-0.4,4.3-1,6.3-1.8l0.7-0.3c2-0.8,3.9-1.9,5.7-3.1l-2.3-5.8l0.5-0.4
							c1.6-1.2,3-2.5,4.3-4l0.4-0.5l6,2.6c1.2-1.8,2.3-3.7,3.1-5.6c0-0.3,0.1-0.5,0.3-0.7c0,0,0,0,0,0l0-0.1c0.9-2,1.6-4.1,2-6.2
							l-5.7-2.4l0.1-0.7c0.3-2,0.4-4,0.2-6l0-0.7l5.9-2.4c-0.4-2.2-1-4.3-1.8-6.3l-0.1-0.1c0-0.1-0.1-0.2-0.1-0.3c0,0,0,0,0-0.1l0,0
							L65.4,22c-0.8-2-1.8-4-3.1-5.8l-5.6,2.2l-0.4-0.6c-1.2-1.7-2.6-3.2-4.2-4.5l-0.5-0.4l2.4-5.6c-1.8-1.3-3.8-2.3-5.8-3.2
							l-0.6-0.2c-2.1-0.9-4.2-1.5-6.3-2L39.2,7l-0.7-0.1c-2.5-0.4-4.9-0.4-7.4-0.1l-0.7,0.1L28.1,1c-2.2,0.4-4.3,1-6.3,1.8L21,3.1
							c-2,0.8-3.9,1.8-5.8,3l2.4,5.9l-0.5,0.4c-1.7,1.4-3.2,2.9-4.5,4.7l-0.4,0.6l-5.7-2.4C5.2,17.1,4.2,19,3.3,21
							c0,0.2-0.1,0.5-0.3,0.7c0,0,0,0.1,0,0.1c-0.9,2-1.5,4.1-2,6.3l6,2.5L7,31.3c-0.2,2.1-0.2,4.3,0.1,6.4l0.1,0.7l-5.9,2.4
							c0.4,2.2,1,4.3,1.8,6.3l0.1,0.1c0,0.1,0.1,0.1,0.1,0.2c0,0.1,0,0.2,0.1,0.2l0,0.1c0.8,2,1.9,4,3.1,5.8l6.3-2.5l0.4,0.5
							c1.3,1.6,2.8,3,4.5,4.3l0.6,0.4L15.7,62.3z M66.3,48.7C66.3,48.7,66.3,48.7,66.3,48.7C66.3,48.7,66.3,48.7,66.3,48.7z
							 M1.7,20.4C1.7,20.4,1.7,20.4,1.7,20.4C1.7,20.4,1.7,20.4,1.7,20.4z M34.1,55c-2.8,0-5.6-0.6-8.2-1.7
							c-5.2-2.2-9.1-6.3-11.2-11.5c-2.1-5.2-2-10.9,0.2-16.1c2.2-5.2,6.3-9.1,11.5-11.2c10.7-4.3,23,0.9,27.3,11.7
							c4.3,10.8-0.9,23-11.7,27.3l0,0C39.4,54.5,36.8,55,34.1,55z M34.1,14.9c-2.4,0-4.8,0.4-7.1,1.4c-4.8,1.9-8.5,5.5-10.5,10.3
							s-2.1,9.9-0.2,14.7s5.5,8.5,10.3,10.5c4.7,2,9.9,2.1,14.7,0.2l0,0c9.8-3.9,14.6-15.1,10.7-24.9C48.9,19.4,41.7,14.9,34.1,14.9
							z"/>
					</g>
				</g>
				<g id="Group_989" transform="translate(621.282 4354.273)">
					<g id="Path_3790">
						<path class="st4" d="M62.2,139.7c-2.8,0-5.7-0.7-8.2-2.2l-46.7-27c-5-2.9-8.2-8.3-8.2-14.2v-54l0,0l0,0
							c0-5.8,3.1-11.3,8.2-14.2L54,1.3c5-2.9,11.3-2.9,16.4,0l46.7,27c5,2.9,8.2,8.3,8.2,14.2v53.9c0,5.8-3.1,11.3-8.2,14.2
							l-46.7,27C67.8,139,65,139.7,62.2,139.7z M62.2,0.9c-2.5,0-5,0.6-7.3,1.9l-46.7,27c-4.5,2.6-7.3,7.4-7.3,12.6v54
							c0,5.2,2.8,10,7.3,12.6l46.7,27c4.5,2.6,10.1,2.6,14.6,0l46.7-27c4.5-2.6,7.3-7.4,7.3-12.6V42.4c0-5.2-2.8-10-7.3-12.6
							l-46.7-27C67.2,1.6,64.7,0.9,62.2,0.9z"/>
					</g>
				</g>
			</g>
		</g>
		<g id="Path_3909" transform="translate(608 4409.888)">
			<g>
				<path class="st4" d="M13.8,26.7c-3.4,0-6.7-1.3-9.1-3.8c-2.4-2.4-3.8-5.7-3.8-9.1s1.3-6.7,3.8-9.1c2.4-2.4,5.7-3.8,9.1-3.8
					s6.7,1.3,9.1,3.8c2.4,2.4,3.8,5.7,3.8,9.1s-1.3,6.7-3.8,9.1C20.5,25.4,17.2,26.7,13.8,26.7z"/>
			</g>
			<g>
				<path class="st4" d="M13.8,1.8c-3.2,0-6.2,1.2-8.5,3.5s-3.5,5.3-3.5,8.5S3,20,5.3,22.3s5.3,3.5,8.5,3.5s6.2-1.2,8.5-3.5
					s3.5-5.3,3.5-8.5s-1.2-6.2-3.5-8.5S17,1.8,13.8,1.8 M13.8,0c7.6,0,13.8,6.2,13.8,13.8s-6.2,13.8-13.8,13.8S0,21.4,0,13.8
					S6.2,0,13.8,0z"/>
			</g>
		</g>
		<g class="st0">
			<path class="st6" d="M620.2,4422.8h1.2c0.8,0,1.4-0.2,1.8-0.6s0.7-0.9,0.7-1.6c0-1.5-0.7-2.2-2.2-2.2c-0.7,0-1.3,0.2-1.7,0.6
				c-0.4,0.4-0.6,0.9-0.6,1.6h-1.6c0-1,0.4-1.9,1.1-2.5c0.7-0.7,1.7-1,2.8-1c1.2,0,2.2,0.3,2.8,1s1,1.5,1,2.7c0,0.6-0.2,1.1-0.5,1.6
				s-0.9,0.9-1.5,1.2c0.7,0.2,1.2,0.6,1.6,1.1s0.6,1.1,0.6,1.9c0,1.1-0.4,2.1-1.1,2.7s-1.7,1-2.9,1s-2.2-0.3-2.9-1s-1.1-1.5-1.1-2.6
				h1.6c0,0.7,0.2,1.2,0.7,1.6s1,0.6,1.8,0.6c0.8,0,1.4-0.2,1.8-0.6s0.6-1,0.6-1.8c0-0.7-0.2-1.3-0.7-1.7s-1.1-0.6-2-0.6h-1.2
				V4422.8z"/>
		</g>
	</g>
	<g id="process-ico4" transform="translate(-95.376)">
		<g id="depl">
			<g id="Group_1116">
				<g id="Group_1000" transform="translate(832.423 4354.273)">
					<g id="Path_3801">
						<path class="st5" d="M62.2,139.7c-2.8,0-5.7-0.7-8.2-2.2l-46.7-27c-5-2.9-8.2-8.3-8.2-14.2v-54c0-5.8,3.1-11.3,8.2-14.2
							L54,1.3c5-2.9,11.3-2.9,16.4,0l46.7,27c5,2.9,8.2,8.3,8.2,14.2v54c0,5.8-3.1,11.3-8.2,14.2l-46.7,27
							C67.8,139,65,139.7,62.2,139.7z M62.2,0.9c-2.5,0-5,0.6-7.3,1.9l-46.7,27c-4.5,2.6-7.3,7.4-7.3,12.6v54c0,5.2,2.8,10,7.3,12.6
							l46.7,27c4.5,2.6,10.1,2.6,14.6,0l46.7-27c4.5-2.6,7.3-7.4,7.3-12.6v-54c0-5.2-2.8-10-7.3-12.6l-46.7-27
							C67.2,1.6,64.7,0.9,62.2,0.9z"/>
					</g>
				</g>
				<g id="Group_1001" transform="translate(871.206 4382.183)">
					<g id="Path_3802">
						<polygon class="st5" points="-0.9,72.4 -0.9,59.7 10.2,46.6 11.6,47.7 0.9,60.4 0.9,68.6 11.2,60.3 12.3,61.7 						"/>
					</g>
					<g id="Path_3803">
						<polygon class="st5" points="50.6,72.4 37.3,61.7 38.5,60.3 48.8,68.6 48.8,60.4 38.1,47.7 39.4,46.6 50.6,59.7 						"/>
					</g>
					<g id="Path_3804">
						<path class="st5" d="M37.7,68.3H12l-0.1-0.7c-1.3-6.4-2-13-2-19.5c0-21.9,6.6-39,15-39s15,17.1,15,39c0,6.5-0.6,13.1-2,19.5
							L37.7,68.3z M13.5,66.5h22.7C37.4,60.4,38,54.2,38,48c0-20.2-6-37.2-13.2-37.2S11.7,27.9,11.7,48
							C11.6,54.2,12.2,60.4,13.5,66.5z"/>
					</g>
					<g id="Line_137">
						<rect x="23.9" y="0" class="st5" width="1.8" height="9.6"/>
					</g>
					<g id="Line_138">
						<rect x="17.9" y="69.8" class="st5" width="1.8" height="8.7"/>
					</g>
					<g id="Line_139">
						<rect x="29.8" y="70.9" class="st5" width="1.8" height="12.1"/>
					</g>
					<g id="Line_140">
						<rect x="24.4" y="42.8" class="st5" width="1.8" height="31.4"/>
					</g>
				</g>
				<g id="Group_1002" transform="translate(832.423 4354.273)">
					<g id="Path_3805">
						<path class="st5" d="M62.2,139.7c-2.8,0-5.7-0.7-8.2-2.2l-46.7-27c-5-2.9-8.2-8.3-8.2-14.2v-54c0-5.8,3.1-11.3,8.2-14.2
							L54,1.3c5-2.9,11.3-2.9,16.4,0l46.7,27c5,2.9,8.2,8.3,8.2,14.2v54c0,5.8-3.1,11.3-8.2,14.2l-46.7,27
							C67.8,139,65,139.7,62.2,139.7z M62.2,0.9c-2.5,0-5,0.6-7.3,1.9l-46.7,27c-4.5,2.6-7.3,7.4-7.3,12.6v54c0,5.2,2.8,10,7.3,12.6
							l46.7,27c4.5,2.6,10.1,2.6,14.6,0l46.7-27c4.5-2.6,7.3-7.4,7.3-12.6v-54c0-5.2-2.8-10-7.3-12.6l-46.7-27
							C67.2,1.6,64.7,0.9,62.2,0.9z"/>
					</g>
				</g>
			</g>
		</g>
		<g id="Path_3908" transform="translate(818.622 4409)">
			<g>
				<path class="st5" d="M13.8,26.7c-3.4,0-6.7-1.3-9.1-3.8c-2.4-2.4-3.8-5.7-3.8-9.1s1.3-6.7,3.8-9.1c2.4-2.4,5.7-3.8,9.1-3.8
					s6.7,1.3,9.1,3.8c2.4,2.4,3.8,5.7,3.8,9.1s-1.3,6.7-3.8,9.1C20.5,25.4,17.2,26.7,13.8,26.7z"/>
			</g>
			<g>
				<path class="st5" d="M13.8,1.8c-3.2,0-6.2,1.2-8.5,3.5s-3.5,5.3-3.5,8.5S3,20,5.3,22.3s5.3,3.5,8.5,3.5s6.2-1.2,8.5-3.5
					s3.5-5.3,3.5-8.5s-1.2-6.2-3.5-8.5S17,1.8,13.8,1.8 M13.8,0c7.6,0,13.8,6.2,13.8,13.8s-6.2,13.8-13.8,13.8S0,21.4,0,13.8
					S6.2,0,13.8,0z"/>
			</g>
		</g>
		<g class="st0">
			<path class="st6" d="M834.5,4424.7h1.8v1.3h-1.8v3h-1.6v-3H827v-1l5.7-8.9h1.7V4424.7z M828.9,4424.7h4v-6.3l-0.2,0.4
				L828.9,4424.7z"/>
		</g>
	</g>
	<g id="process-ico5" transform="translate(-95.376)">
		<g id="upgr" transform="translate(217 96)">
			<g id="Group_1168" transform="translate(-145.633 3101.183)">
				<g id="Group_1167">
					<g id="Group_1003">
						<g id="Path_3806">
							<path class="st3" d="M1034.8,1296.5c-2.8,0-5.7-0.7-8.2-2.2l-46.7-27c-5-2.9-8.2-8.3-8.2-14.2v-54c0-5.8,3.1-11.2,8.2-14.1
								l46.7-27c5-2.9,11.3-2.9,16.3,0l46.7,27c5,2.9,8.2,8.3,8.2,14.1v54c0,5.8-3.1,11.2-8.2,14.2l-46.7,27
								C1040.5,1295.8,1037.6,1296.5,1034.8,1296.5z M1034.8,1157.7c-2.5,0-5,0.6-7.3,1.9l-46.7,27c-4.5,2.6-7.3,7.4-7.3,12.6v54
								c0,5.2,2.8,10,7.3,12.6l46.7,27c4.5,2.6,10.1,2.6,14.6,0l46.7-27c4.5-2.6,7.3-7.4,7.3-12.6v-54c0-5.2-2.8-10-7.3-12.6
								l-46.7-27C1039.9,1158.3,1037.3,1157.7,1034.8,1157.7z"/>
						</g>
					</g>
					<g id="Group_1007">
						<g id="Path_3809">
							<path class="st3" d="M1034.8,1296.5c-2.8,0-5.7-0.7-8.2-2.2l-46.7-27c-5-2.9-8.2-8.3-8.2-14.2v-54c0-5.8,3.1-11.3,8.2-14.2
								l46.7-27c5-2.9,11.3-2.9,16.4,0l46.7,27c5,2.9,8.2,8.3,8.2,14.2v54c0,5.8-3.1,11.3-8.2,14.2l-46.7,27
								C1040.5,1295.8,1037.6,1296.5,1034.8,1296.5z M1034.8,1157.7c-2.5,0-5,0.6-7.3,1.9l-46.7,27c-4.5,2.6-7.3,7.4-7.3,12.6v54
								c0,5.2,2.8,10,7.3,12.6l46.7,27c4.5,2.6,10.1,2.6,14.6,0l46.7-27c4.5-2.6,7.3-7.4,7.3-12.6v-54c0-5.2-2.8-10-7.3-12.6
								l-46.7-27C1039.9,1158.4,1037.3,1157.7,1034.8,1157.7z"/>
						</g>
					</g>
					<g id="Group_1166">
						<g id="Group_1006">
							<g id="Rectangle_460">
								<path class="st3" d="M1034.8,1274.8l-14.5-14.5l14.5-14.5l14.5,14.5L1034.8,1274.8z M1022.9,1260.4l11.9,11.9l11.9-11.9
									l-11.9-11.9L1022.9,1260.4z"/>
							</g>
						</g>
						<g id="Group_1165">
							<g id="Group_1162">
								<g id="Path_3886">
									<path class="st3" d="M1059.5,1260.7l-1.1-1.5c12.4-9,16.6-25.6,10.2-39.5l1.6-0.8
										C1077.1,1233.6,1072.6,1251.2,1059.5,1260.7z"/>
								</g>
								<g id="Group_1161">
									<g id="Path_3887">
										<path class="st3" d="M1066.2,1222.7l0.1-8.7l7.5,4.4L1066.2,1222.7z"/>
									</g>
								</g>
							</g>
							<g id="Group_1164">
								<g id="Path_3888">
									<path class="st3" d="M1010.1,1260.7c-13.1-9.5-17.6-27.1-10.7-41.7l1.6,0.8c-6.5,13.9-2.2,30.5,10.2,39.5L1010.1,1260.7z"
										/>
								</g>
								<g id="Group_1163">
									<g id="Path_3889">
										<path class="st3" d="M995.9,1218.4l7.5-4.4l0.1,8.7L995.9,1218.4z"/>
									</g>
								</g>
							</g>
						</g>
					</g>
				</g>
				<g id="Path_3890">
					<path class="st3" d="M1034.9,1231.2c-0.2,0-0.3,0-0.5,0c-0.1,0-0.1,0-0.2,0l-0.1,0c-0.1,0-0.2,0-0.3,0c-1.9,0-3.8-0.3-5.6-0.8
						l-0.7-0.2l0.1-4.8c-0.8-0.3-1.6-0.6-2.4-1l-3.9,3.7l-0.6-0.4c-1.6-1.1-3.1-2.3-4.4-3.7c-0.1-0.1-0.1-0.1-0.2-0.2
						c-0.1-0.1-0.1-0.1-0.2-0.2c-1.3-1.4-2.5-2.9-3.5-4.6l-0.4-0.6l3.6-3.4c-0.6-1.1-1-2.1-1.4-3.3l-5.1-0.1l-0.1-0.7
						c-0.4-1.9-0.6-3.8-0.5-5.7c0-0.1,0-0.2,0-0.2c0-0.1,0-0.2,0-0.3c0-1.9,0.3-3.8,0.8-5.7l0.2-0.7l4.7,0.1
						c0.4-1.2,0.8-2.3,1.4-3.4l-3.4-3.6l0.4-0.6c1.1-1.6,2.3-3.1,3.7-4.4l0.4-0.4c1.4-1.3,2.9-2.5,4.6-3.5l0.6-0.4l3.2,3.3
						c1.1-0.6,2.3-1.1,3.5-1.5l0.1-4.8l0.7-0.1c1.9-0.4,3.8-0.6,5.7-0.5c0.1,0,0.1,0,0.2,0l0.1,0c0.1,0,0.2,0,0.3,0
						c1.9,0,3.8,0.3,5.7,0.8l0.7,0.2l-0.1,4.7c1.4,0.5,2.8,1.1,4.1,1.9l3.1-2.9l0.6,0.4c1.6,1.1,3.1,2.3,4.4,3.7
						c0,0,0.1,0.1,0.2,0.2l0.2,0.2c1.4,1.4,2.5,3,3.5,4.6l0.4,0.6l-3.4,3.2c0.5,1.1,0.9,2.2,1.2,3.3l4.4,0.1l0.1,0.7
						c0.4,1.9,0.6,3.8,0.5,5.7c0,0.1,0,0.2,0,0.3l0,0.2c0,1.9-0.3,3.8-0.8,5.7l-0.2,0.7l-4.8-0.1c-0.4,1.1-0.9,2.1-1.5,3.1l3.2,3.3
						l-0.4,0.6c-1.1,1.6-2.3,3.1-3.7,4.4c0,0-0.1,0.1-0.2,0.1l-0.1,0.1c0,0.1-0.1,0.1-0.1,0.2c-1.4,1.3-2.9,2.5-4.6,3.5l-0.6,0.4
						l-3.4-3.6c-1,0.5-2.1,0.8-3.1,1.1l-0.1,4.7l-0.7,0.1C1038.4,1231,1036.6,1231.2,1034.9,1231.2z M1034.1,1229.3
						c0.1,0,0.2,0,0.2,0c1.6,0,3.1-0.1,4.7-0.3l0.1-4.6l0.7-0.2c1.4-0.3,2.7-0.8,4-1.5l0.6-0.3l3.3,3.5c1.3-0.8,2.5-1.8,3.6-2.9
						c0.1-0.1,0.1-0.1,0.2-0.2l0.2-0.2c1.1-1.1,2.1-2.2,3-3.5l-3.2-3.3l0.4-0.6c0.8-1.2,1.4-2.6,1.9-3.9l0.2-0.6l4.7,0.1
						c0.3-1.5,0.5-3.1,0.6-4.6c0-0.1,0-0.2,0-0.3c0-0.1,0-0.1,0-0.2c0-1.6-0.1-3.1-0.3-4.6l-4.4-0.1l-0.2-0.7
						c-0.3-1.5-0.8-2.9-1.5-4.2l-0.3-0.6l3.2-3.1c-0.8-1.3-1.8-2.5-2.9-3.6c-0.1-0.1-0.1-0.1-0.2-0.2c-0.1-0.1-0.1-0.1-0.2-0.2
						c-1.1-1.1-2.3-2.1-3.5-3l-3,2.9l-0.6-0.4c-1.5-1-3.2-1.7-4.9-2.2l-0.7-0.2l0.1-4.6c-1.5-0.3-3-0.5-4.6-0.5c-0.1,0-0.2,0-0.3,0
						c-0.1,0-0.1,0-0.2,0c-1.6,0-3.2,0.1-4.7,0.3l-0.1,4.7l-0.6,0.2c-1.5,0.4-3,1-4.4,1.8l-0.6,0.3l-3.2-3.3
						c-1.3,0.8-2.5,1.8-3.6,2.9c-0.1,0.1-0.1,0.2-0.2,0.2l-0.2,0.2c-1.1,1.1-2.1,2.2-3,3.5l3.3,3.4l-0.3,0.6
						c-0.7,1.4-1.3,2.8-1.8,4.3l-0.2,0.7l-4.6-0.1c-0.3,1.5-0.5,3-0.5,4.6c0,0.1,0,0.2,0,0.3c0,0.1,0,0.2,0,0.2
						c0,1.6,0.1,3.1,0.3,4.6l5,0.1l0.2,0.6c0.4,1.4,1,2.8,1.8,4.1l0.3,0.6l-3.5,3.4c0.8,1.3,1.8,2.5,2.9,3.6c0,0,0.1,0.1,0.1,0.1
						l0.3,0.3c1,1.1,2.2,2.1,3.5,3l3.8-3.6l0.6,0.3c1.1,0.6,2.2,1.1,3.3,1.4l0.6,0.2l-0.1,4.7c1.5,0.3,3.1,0.5,4.6,0.5
						L1034.1,1229.3z M1034.8,1220.6c-0.1,0-0.2,0-0.3,0l0,0c-8.7-0.2-15.6-7.4-15.4-16.1c0.1-4.2,1.8-8.1,4.8-11
						c3-2.9,7-4.4,11.2-4.4c4.2,0.1,8.1,1.8,11,4.8c2.9,3,4.4,7,4.4,11.2C1050.4,1213.7,1043.3,1220.6,1034.8,1220.6z
						 M1034.5,1218.8c0.1,0,0.2,0,0.3,0c7.5,0,13.7-6,13.9-13.6c0.1-3.7-1.3-7.2-3.9-9.9s-6-4.2-9.7-4.3c-3.7-0.1-7.2,1.3-9.9,3.9
						c-2.7,2.6-4.2,6-4.3,9.7C1020.8,1212.2,1026.9,1218.6,1034.5,1218.8L1034.5,1218.8z M1034.8,1212.4c-0.1,0-0.1,0-0.2,0l-1.1,0
						l0-0.1c-3.6-0.6-6.3-3.8-6.2-7.6c0.1-4.1,3.5-7.4,7.7-7.3c4.1,0.1,7.4,3.5,7.3,7.7C1042.3,1209.1,1038.9,1212.4,1034.8,1212.4z
						 M1034.8,1199.1c-3.1,0-5.6,2.5-5.7,5.6c-0.1,3.2,2.4,5.8,5.6,5.8l0.2,0c3.1,0,5.6-2.5,5.6-5.6c0.1-3.2-2.4-5.8-5.6-5.8
						C1034.9,1199.1,1034.9,1199.1,1034.8,1199.1z"/>
				</g>
			</g>
		</g>
		<g id="Group_1194" transform="translate(633.199)">
			<g id="Ellipse_154" transform="translate(397 4409.472)">
				<g>
					<circle class="st3" cx="13.8" cy="13.8" r="13.8"/>
				</g>
				<g>
					<path class="st3" d="M13.8,27.6C6.2,27.6,0,21.4,0,13.8S6.2,0,13.8,0s13.8,6.2,13.8,13.8S21.4,27.6,13.8,27.6z M13.8,1.8
						C7.2,1.8,1.8,7.2,1.8,13.8s5.4,12.1,12.1,12.1s12.1-5.4,12.1-12.1S20.4,1.8,13.8,1.8z"/>
				</g>
			</g>
			<g class="st0">
				<path class="st6" d="M407.2,4423.6l0.7-6.4h6.6v1.5h-5.2l-0.4,3.5c0.6-0.4,1.3-0.6,2.1-0.6c1.2,0,2.1,0.4,2.8,1.2
					c0.7,0.8,1,1.8,1,3.1c0,1.3-0.4,2.4-1.1,3.1c-0.7,0.8-1.7,1.1-3,1.1c-1.1,0-2.1-0.3-2.8-0.9s-1.1-1.5-1.2-2.6h1.5
					c0.1,0.7,0.4,1.3,0.8,1.7s1,0.6,1.7,0.6c0.8,0,1.3-0.3,1.8-0.8s0.6-1.2,0.6-2.1c0-0.9-0.2-1.5-0.7-2.1c-0.5-0.5-1.1-0.8-1.9-0.8
					c-0.7,0-1.3,0.2-1.7,0.5l-0.4,0.4L407.2,4423.6z"/>
			</g>
		</g>
	</g>
	<g id="process-ico6">
		<g id="Group_1207">
			<g id="Group_1209" transform="translate(20.017)">
				<g id="Group_1208" transform="translate(24.336 3086.002)">
					<g id="Path_3763">
						<path class="st4" d="M1170.7,1415.9c-2,0-4-0.5-5.9-1.6l-54.2-31.3c-3.6-2.1-5.9-6-5.9-10.1v-62.6c0-4.2,2.2-8.1,5.9-10.1
							l54.2-31.3c3.6-2.1,8.1-2.1,11.7,0l54.2,31.3c3.6,2.1,5.9,6,5.9,10.1v62.6c0,4.2-2.2,8.1-5.9,10.1l-54.2,31.3
							C1174.7,1415.4,1172.7,1415.9,1170.7,1415.9z M1170.7,1269.1c-1.7,0-3.4,0.4-5,1.3l-54.2,31.3c-3.1,1.8-5,5.1-5,8.6v62.6
							c0,3.5,1.9,6.9,5,8.6l54.2,31.3c3.1,1.8,6.9,1.8,10,0l54.2-31.3c3.1-1.8,5-5.1,5-8.6v-62.6c0-3.5-1.9-6.9-5-8.6l-54.2-31.3
							C1174.1,1269.6,1172.4,1269.1,1170.7,1269.1z"/>
					</g>
					<g id="Group_1207-2">
						<g id="Path_3923">
							<polygon class="st4" points="1188.1,1351 1147.5,1351 1147.5,1297.7 1188.1,1297.7 1188.1,1303.4 1186.4,1303.4 
								1186.4,1299.5 1149.2,1299.5 1149.2,1349.2 1186.4,1349.2 1186.4,1346.4 1188.1,1346.4 							"/>
						</g>
						<g id="Group_623">
							<g id="Path_3461">
								<path class="st4" d="M1148,1380.8l-1.2-1.2l0.7-0.7c1.1-1.1,2.7-1.8,4.3-1.8h34.7c1.3,0,2.6-0.6,3.5-1.6l0.3-0.3l15.6-16
									c1.2-1.3,1.2-3.3,0-4.5c-1.2-1.2-3.2-1.1-4.4,0.1l-11.1,11.3l0,0l-1.1,1.1c-0.2,0.2-0.5,0.4-0.8,0.5l-0.3,0h-21.1
									c-0.9-0.1-1.6-0.8-1.5-1.6c0.1-0.9,0.8-1.5,1.6-1.5c0.3,0,0.9,0,2.1-0.1h9.8c1.8,0,3.2-1.5,3.2-3.2c0-1.8-1.5-3.2-3.2-3.2
									h-27.9c-0.7,0-1.4,0.1-2.1,0.3v0l-0.7,0.2c-1.3,0.3-2.5,1-3.5,1.9l-7.9,8.3l-1.3-1.2l7.9-8.3c1.1-1.1,2.5-1.9,4-2.3l0.3-0.1
									c1-0.3,2.1-0.5,3.2-0.5l28,0c2.8,0,5,2.2,5,5c0,2.1-1.3,4-3.2,4.7l7.1,0l2.3-2.4l0,0l9.8-10c1.8-1.9,4.9-2,6.9-0.1
									c1.9,1.9,2,4.9,0.1,6.9l-0.1,0.1l-16.2,16.5c-1.2,1.2-2.8,1.9-4.5,1.9h-34.7c-1.1,0-2.3,0.5-3.1,1.3L1148,1380.8z
									 M1167.2,1366.4C1167.2,1366.4,1167.2,1366.4,1167.2,1366.4C1167.2,1366.4,1167.2,1366.4,1167.2,1366.4
									C1167.2,1366.4,1167.2,1366.4,1167.2,1366.4z"/>
							</g>
							<g id="Path_3720">
								<path class="st4" d="M1142.8,1390.4l-17.2-17.3l8.3-8.3l17.2,17.3L1142.8,1390.4z M1128.5,1373.1l14.4,14.4l5.4-5.4
									l-14.4-14.4L1128.5,1373.1z"/>
							</g>
							<g id="Path_3463">
								<path class="st4" d="M1189.9,1378l-1.1-1.4l23.7-18.3c0.8-0.7,1-1.9,0.3-2.8c-0.7-0.8-1.9-1-2.7-0.3l-1.9,1.7l-1.2-1.3
									l2-1.8c1.7-1.3,3.9-1,5.2,0.6c1.3,1.6,1.1,4-0.5,5.3L1189.9,1378z"/>
							</g>
						</g>
						<g id="Path_3464">
							<path class="st4" d="M1186.8,1343.7c-0.1,0-0.2,0-0.4,0l-0.4,0c-1.4,0-2.8-0.2-4.2-0.6l-0.7-0.2l0.1-3.5
								c-0.5-0.2-1-0.4-1.5-0.6l-2.8,2.7l-0.6-0.4c-1.2-0.8-2.3-1.7-3.2-2.7c0,0-0.1-0.1-0.1-0.1c0,0-0.1-0.1-0.1-0.1
								c-1-1-1.8-2.2-2.6-3.4l-0.4-0.6l2.6-2.5c-0.4-0.7-0.7-1.4-0.9-2.1l-3.7-0.1l-0.1-0.7c-0.3-1.4-0.4-2.8-0.4-4.2l0-0.2
								c0-0.1,0-0.1,0-0.2c0-1.4,0.2-2.8,0.6-4.2l0.2-0.7l3.4,0.1c0.2-0.8,0.6-1.5,0.9-2.2l-2.5-2.6l0.4-0.6
								c0.8-1.2,1.7-2.3,2.7-3.2l0.3-0.3c1-1,2.1-1.8,3.4-2.6l0.6-0.4l2.3,2.4c0.7-0.4,1.5-0.7,2.3-0.9l0.1-3.5l0.7-0.1
								c1.4-0.3,2.8-0.4,4.2-0.4c0.1,0,0.2,0,0.2,0l0,0l0.1,0c1.4,0,2.8,0.2,4.2,0.6l0.7,0.2l-0.1,3.4c0.9,0.3,1.9,0.7,2.7,1.2
								l2.2-2.1l0.6,0.4c1.2,0.8,2.3,1.7,3.2,2.7c0,0,0.1,0.1,0.1,0.2l0.1,0.1c1,1,1.8,2.1,2.6,3.4l0.4,0.6l-2.4,2.3
								c0.3,0.7,0.6,1.4,0.8,2.2l3.2,0.1l0.1,0.7c0.3,1.4,0.4,2.8,0.4,4.2c0,0.1,0,0.2,0,0.3l0,0.1c0,1.4-0.2,2.8-0.6,4.2l-0.2,0.7
								l-3.5-0.1c-0.3,0.7-0.6,1.3-1,2l2.3,2.4l-0.4,0.6c-0.8,1.2-1.7,2.3-2.7,3.2c0,0-0.1,0.1-0.1,0.1c-0.1,0.1-0.1,0.1-0.1,0.2
								c-1,1-2.1,1.8-3.4,2.6l-0.6,0.4l-2.5-2.6c-0.6,0.3-1.3,0.5-2,0.7l-0.1,3.4l-0.7,0.1
								C1189.4,1343.6,1188.1,1343.7,1186.8,1343.7z M1186.3,1342c0.1,0,0.1,0,0.2,0c1.1,0,2.1-0.1,3.1-0.2l0.1-3.3l0.6-0.2
								c1-0.2,2-0.6,2.9-1.1l0.6-0.3l2.4,2.5c0.9-0.6,1.7-1.2,2.5-2c0-0.1,0.1-0.1,0.1-0.1l0.1-0.1c0.8-0.8,1.5-1.6,2.1-2.4
								l-2.3-2.4l0.4-0.6c0.6-0.9,1-1.8,1.4-2.8l0.2-0.6l3.4,0.1c0.2-1,0.3-2.1,0.4-3.1c0,0,0-0.1,0-0.2c0-0.1,0-0.1,0-0.1
								c0-1.1-0.1-2.1-0.2-3.2l-3.2-0.1l-0.2-0.7c-0.2-1.1-0.6-2.1-1.1-3l-0.3-0.6l2.3-2.2c-0.6-0.9-1.2-1.7-2-2.5
								c0,0-0.1-0.1-0.2-0.1l-0.1-0.1c-0.7-0.8-1.5-1.5-2.4-2.1l-2.2,2.1l-0.6-0.4c-1.1-0.7-2.3-1.2-3.5-1.6l-0.6-0.2l0.1-3.3
								c-1-0.2-2.1-0.3-3.1-0.4c-0.1,0-0.2,0-0.3,0l-0.1-0.9l0,0.9c-1,0-2.1,0.1-3.1,0.2l-0.1,3.4l-0.6,0.2
								c-1.1,0.3-2.1,0.7-3.1,1.3l-0.6,0.3l-2.3-2.4c-0.9,0.6-1.7,1.2-2.5,2l-0.2,0.2c-0.8,0.8-1.5,1.6-2.1,2.4l2.4,2.5l-0.3,0.6
								c-0.5,1-1,2-1.3,3.1l-0.2,0.7l-3.4-0.1c-0.2,1-0.3,2.1-0.4,3.1c0,0.1,0,0.1,0,0.2c0,0.1,0,0.1,0,0.2c0,1,0.1,2.1,0.2,3.1
								l3.6,0.1l0.2,0.6c0.3,1,0.7,2,1.3,3l0.3,0.6l-2.5,2.4c0.6,0.9,1.2,1.7,2,2.5c0,0,0,0,0.1,0.1l0.2,0.2
								c0.7,0.8,1.5,1.4,2.4,2.1l2.7-2.6l0.6,0.3c0.8,0.4,1.6,0.8,2.4,1l0.6,0.2l-0.1,3.4c1,0.2,2.1,0.3,3.1,0.4L1186.3,1342z
								 M1186.8,1336c-0.1,0-0.2,0-0.2,0l-2.5-0.1l0.3-0.2c-5.3-1.2-9.3-6-9.2-11.6c0.1-6.3,5.3-11.4,11.7-11.4c0.1,0,0.2,0,0.2,0
								c3.5,0.1,6.7,1.7,8.9,4.4c1.7,2.1,2.6,4.8,2.5,7.5C1198.3,1331,1193.1,1336,1186.8,1336z M1186.7,1314.5
								c-5.4,0-9.8,4.3-9.9,9.7c-0.1,2.6,0.9,5.2,2.8,7.1c1.8,1.9,4.3,3,6.9,3l0.2,0c5.4,0,9.7-4.3,9.9-9.7c0.1-2.3-0.7-4.6-2.2-6.4
								c-1.8-2.3-4.6-3.7-7.6-3.7C1186.9,1314.5,1186.8,1314.5,1186.7,1314.5z M1186.8,1330.1c0,0-0.1,0-0.1,0l-0.9,0v-0.1
								c-2.7-0.5-4.8-2.9-4.7-5.7c0.1-3.1,2.6-5.6,5.8-5.6c1.5,0,2.9,0.7,4,1.7c1.1,1.1,1.6,2.5,1.6,4.1
								C1192.4,1327.6,1189.9,1330.1,1186.8,1330.1z M1186.8,1320.4c-2.1,0-3.9,1.7-3.9,3.9c0,2.2,1.7,4,3.9,4l0.2,0
								c2.1,0,3.8-1.7,3.9-3.9c0-1.1-0.4-2.1-1.1-2.8C1188.9,1320.9,1187.9,1320.5,1186.8,1320.4
								C1186.8,1320.4,1186.8,1320.4,1186.8,1320.4z"/>
						</g>
					</g>
				</g>
			</g>
			<g id="Group_1210" transform="translate(739.823)">
				<g id="Ellipse_154-2" transform="translate(397 4409.472)">
					<g>
						<circle class="st4" cx="13.8" cy="13.8" r="13.8"/>
					</g>
					<g>
						<path class="st4" d="M13.8,27.6C6.2,27.6,0,21.4,0,13.8S6.2,0,13.8,0s13.8,6.2,13.8,13.8S21.4,27.6,13.8,27.6z M13.8,1.8
							C7.2,1.8,1.8,7.2,1.8,13.8s5.4,12.1,12.1,12.1s12.1-5.4,12.1-12.1S20.4,1.8,13.8,1.8z"/>
					</g>
				</g>
				<g class="st0">
					<path class="st6" d="M412.8,4417.2v1.4h-0.3c-1.3,0-2.3,0.4-3,1.1s-1.2,1.7-1.3,3.1c0.7-0.8,1.6-1.2,2.8-1.2
						c1.1,0,2,0.4,2.7,1.2s1,1.8,1,3c0,1.3-0.4,2.4-1.1,3.2s-1.7,1.2-2.9,1.2c-1.2,0-2.2-0.5-3-1.4c-0.8-0.9-1.1-2.2-1.1-3.6v-0.6
						c0-2.4,0.5-4.2,1.5-5.4c1-1.2,2.5-1.9,4.5-1.9H412.8z M410.7,4423c-0.6,0-1.1,0.2-1.5,0.5s-0.8,0.8-1,1.3v0.6
						c0,1.1,0.2,1.9,0.7,2.5s1.1,1,1.8,1c0.7,0,1.3-0.3,1.7-0.8s0.6-1.2,0.6-2.1c0-0.9-0.2-1.6-0.6-2.1S411.4,4423,410.7,4423z"/>
				</g>
			</g>
		</g>
	</g>
</g>
</svg>
