<svg xmlns="http://www.w3.org/2000/svg" width="139" height="156.677" viewBox="0 0 139 156.677"><defs><style>.a{fill:#fff;stroke:#fdb92b;stroke-width:4px;}.a,.b,.c,.d{stroke-miterlimit:10;}.b,.c{fill:none;}.b,.c,.d{stroke:#0eacbb;}.b{stroke-width:2.449px;}.c{stroke-width:2.685px;}.d{fill:#fdb913;stroke-width:2.101px;}</style></defs><g transform="translate(-143 -1036.863)"><g transform="translate(-951.58 2.942)"><path class="a" d="M1231.58,1144.736v-64.952a11.252,11.252,0,0,0-5.625-9.743l-56.251-32.477a11.256,11.256,0,0,0-11.249,0l-56.25,32.476a11.249,11.249,0,0,0-5.625,9.742v64.953a11.245,11.245,0,0,0,5.625,9.742l56.25,32.477a11.251,11.251,0,0,0,11.249,0l56.25-32.477A11.248,11.248,0,0,0,1231.58,1144.736Z" transform="translate(0 0)"/></g><g transform="translate(-1080.082 247.979)"><path class="b" d="M1331.312,896.794h-77c-2.338,0-4.233-1.534-4.233-3.426V848.637c0-1.892,1.9-3.426,4.233-3.426h77c2.338,0,4.233,1.534,4.233,3.426v44.731C1335.545,895.26,1333.65,896.794,1331.312,896.794Z"/><path class="c" d="M1286.272,896.739l-7.748,12.027H1307.1l-7.773-12.027"/><path class="d" d="M1296.78,872.669V828.452c0-1.343.729-2.431,1.628-2.431h21.254c.9,0,1.628,1.088,1.628,2.431v44.217c0,1.343-.729,2.431-1.628,2.431h-21.254C1297.509,875.1,1296.78,874.012,1296.78,872.669Z"/></g></g></svg>